<svg width="73" height="278" viewBox="0 0 73 278" fill="none" xmlns="http://www.w3.org/2000/svg">
<circle cx="36.5" cy="241.5" r="35.5" fill="white" stroke="#59D6FF" stroke-width="2"/>
<path d="M42.5254 235.434H31.4746C29.2701 235.434 27.4766 237.217 27.4766 239.408C27.4766 241.6 29.27 243.383 31.4746 243.383H42.5254C44.7299 243.383 46.5234 241.6 46.5234 239.408C46.5234 237.217 44.7299 235.434 42.5254 235.434ZM33.122 239.9C33.122 240.639 32.5186 241.239 31.7743 241.239C31.0301 241.239 30.4267 240.639 30.4267 239.9V238.917C30.4267 238.177 31.0301 237.577 31.7743 237.577C32.5186 237.577 33.122 238.177 33.122 238.917V239.9ZM43.5732 239.9C43.5732 240.639 42.9698 241.239 42.2256 241.239C41.4813 241.239 40.8779 240.639 40.8779 239.9V238.917C40.8779 238.177 41.4813 237.577 42.2256 237.577C42.9698 237.577 43.5732 238.177 43.5732 238.917V239.9Z" fill="#003B5D"/>
<path d="M53.2617 242.578V239.989C53.2617 231.032 45.9621 224 37 224C28.0283 224 20.7383 231.033 20.7383 239.989V242.578C20.7383 246.711 24.1291 250.082 28.2854 250.082H45.7146C49.8709 250.082 53.2617 246.711 53.2617 242.578ZM31.4746 246.062C27.7839 246.062 24.7812 243.077 24.7812 239.408C24.7812 235.738 27.7838 232.753 31.4746 232.753H42.5254C46.2161 232.753 49.2188 235.738 49.2188 239.408C49.2188 243.077 46.2161 246.062 42.5254 246.062H31.4746ZM44.0078 255.441H41.043C39.5605 255.441 38.3477 256.647 38.3477 258.12C38.3477 259.594 39.5605 260.8 41.043 260.8H44.0078C45.4902 260.8 46.7031 259.594 46.7031 258.12C46.7031 256.647 45.4902 255.441 44.0078 255.441ZM57.3047 251.376C57.3047 254.354 54.7122 256.87 51.6433 256.87H49.2488C49.348 257.279 49.3982 257.699 49.3984 258.12C49.3984 258.615 49.3292 259.094 49.2023 259.55H51.6433C56.1731 259.55 60 255.807 60 251.376V248.758C59.2161 249.344 58.3 249.765 57.3047 249.967V251.376ZM55.957 233.934H55.8404V226.186C55.8404 225.446 55.237 224.846 54.4928 224.846C53.7485 224.846 53.1451 225.446 53.1451 226.186V230.147C54.9766 233.064 55.957 236.444 55.957 239.989V242.578C55.957 244.33 55.5096 245.98 54.7224 247.422H55.957C58.1863 247.422 60 245.619 60 243.402V237.954C60 235.737 58.1863 233.934 55.957 233.934ZM18.043 239.989C18.043 236.443 19.0234 233.061 20.8548 230.144V226.186C20.8548 225.446 20.2514 224.846 19.5072 224.846C18.7629 224.846 18.1595 225.446 18.1595 226.186V233.934H18.043C15.8137 233.934 14 235.737 14 237.954V243.402C14 245.619 15.8137 247.422 18.043 247.422H19.2776C18.4904 245.98 18.043 244.33 18.043 242.578V239.989Z" fill="#003B5D"/>
<line opacity="0.2" x1="36.5" y1="190" x2="36.5" y2="90" stroke="white"/>
<path d="M35 62.8807V64.4659C34.544 64.5597 34.1435 64.7237 33.7983 64.9581C33.4531 65.1882 33.1634 65.4695 32.929 65.8018C32.6903 66.13 32.5114 66.4943 32.392 66.8949C32.2727 67.2955 32.2131 67.7131 32.2131 68.1477C32.2131 68.9403 32.4134 69.6584 32.8139 70.3018C33.2145 70.9411 33.8047 71.4503 34.5845 71.8295C35.3643 72.2045 36.321 72.392 37.4545 72.392C38.5881 72.392 39.5447 72.2045 40.3246 71.8295C41.1044 71.4503 41.6946 70.9411 42.0952 70.3018C42.4957 69.6584 42.696 68.9403 42.696 68.1477C42.696 67.7131 42.6364 67.2955 42.517 66.8949C42.3977 66.4943 42.2209 66.13 41.9865 65.8018C41.7479 65.4695 41.456 65.1882 41.1108 64.9581C40.7614 64.7237 40.3608 64.5597 39.9091 64.4659V62.8807C40.5781 63 41.1768 63.2173 41.7053 63.5327C42.2337 63.848 42.6832 64.2401 43.054 64.7088C43.4205 65.1776 43.6996 65.7038 43.8913 66.2876C44.0831 66.8672 44.179 67.4872 44.179 68.1477C44.179 69.2642 43.9062 70.2571 43.3608 71.1264C42.8153 71.9957 42.0398 72.6797 41.0341 73.1783C40.0284 73.6768 38.8352 73.9261 37.4545 73.9261C36.0739 73.9261 34.8807 73.6768 33.875 73.1783C32.8693 72.6797 32.0938 71.9957 31.5483 71.1264C31.0028 70.2571 30.7301 69.2642 30.7301 68.1477C30.7301 67.4872 30.826 66.8672 31.0178 66.2876C31.2095 65.7038 31.4908 65.1776 31.8615 64.7088C32.228 64.2401 32.6754 63.848 33.2038 63.5327C33.728 63.2173 34.3267 63 35 62.8807ZM38.0938 59.0151H44V60.5236H30.9091V59.0151H35.7159V58.8873C35.2088 58.6571 34.8061 58.312 34.5078 57.8517C34.2053 57.3873 34.054 56.7694 34.054 55.998C34.054 55.329 34.1882 54.7431 34.4567 54.2402C34.7209 53.7374 35.1278 53.3475 35.6776 53.0705C36.223 52.7892 36.9176 52.6486 37.7614 52.6486H44V54.1571H37.8636C37.0838 54.1571 36.4808 54.3596 36.0547 54.7644C35.6243 55.165 35.4091 55.7211 35.4091 56.4327C35.4091 56.927 35.5135 57.3702 35.7223 57.7623C35.9311 58.15 36.2358 58.4569 36.6364 58.6827C37.0369 58.9043 37.5227 59.0151 38.0938 59.0151ZM44.2301 46.9996C44.2301 47.6218 44.1129 48.1864 43.8786 48.6935C43.6399 49.2006 43.2969 49.6033 42.8494 49.9016C42.3977 50.1999 41.8523 50.3491 41.2131 50.3491C40.6506 50.3491 40.1946 50.2383 39.8452 50.0167C39.4915 49.7951 39.2145 49.4989 39.0142 49.1282C38.8139 48.7575 38.6648 48.3484 38.5668 47.9009C38.4645 47.4492 38.3835 46.9954 38.3239 46.5394C38.2472 45.9428 38.1896 45.4592 38.1513 45.0884C38.1087 44.7134 38.0384 44.4407 37.9403 44.2702C37.8423 44.0955 37.6719 44.0082 37.429 44.0082H37.3778C36.7472 44.0082 36.2571 44.1808 35.9077 44.5259C35.5582 44.8668 35.3835 45.3846 35.3835 46.0792C35.3835 46.7994 35.5412 47.364 35.8565 47.7731C36.1719 48.1822 36.5085 48.4698 36.8665 48.636L36.3551 50.0678C35.7585 49.8121 35.294 49.4712 34.9616 49.0451C34.625 48.6147 34.3906 48.146 34.2585 47.6388C34.1222 47.1275 34.054 46.6246 34.054 46.1303C34.054 45.815 34.0923 45.4528 34.169 45.0437C34.2415 44.6303 34.3928 44.2319 34.6229 43.8484C34.853 43.4606 35.2003 43.1388 35.6648 42.8832C36.1293 42.6275 36.7514 42.4996 37.5312 42.4996H44V44.0082H42.6705V44.0849C42.8835 44.1871 43.1115 44.3576 43.3544 44.5962C43.5973 44.8349 43.804 45.1523 43.9744 45.5487C44.1449 45.945 44.2301 46.4286 44.2301 46.9996ZM42.875 46.7695C42.875 46.1729 42.7578 45.6701 42.5234 45.261C42.2891 44.8477 41.9865 44.5366 41.6158 44.3278C41.245 44.1147 40.8551 44.0082 40.446 44.0082H39.0653C39.142 44.0721 39.2124 44.2127 39.2763 44.43C39.3359 44.6431 39.3892 44.8903 39.4361 45.1715C39.4787 45.4485 39.517 45.7191 39.5511 45.9833C39.581 46.2433 39.6065 46.4542 39.6278 46.6161C39.679 47.0082 39.7621 47.3746 39.8771 47.7156C39.9879 48.0522 40.1562 48.3249 40.3821 48.5337C40.6037 48.7383 40.9062 48.8406 41.2898 48.8406C41.8139 48.8406 42.2102 48.6467 42.4787 48.2589C42.7429 47.8668 42.875 47.3704 42.875 46.7695ZM34.1818 35.4764H35.4602V40.5645H34.1818V35.4764ZM31.8295 39.0815V37.573H41.1875C41.6136 37.573 41.9332 37.5112 42.1463 37.3876C42.3551 37.2598 42.4957 37.0978 42.5682 36.9018C42.6364 36.7015 42.6705 36.4906 42.6705 36.269C42.6705 36.1028 42.6619 35.9664 42.6449 35.8599C42.6236 35.7534 42.6065 35.6681 42.5938 35.6042L43.9489 35.2974C43.9872 35.3997 44.0256 35.5424 44.0639 35.7257C44.1065 35.9089 44.1278 36.1412 44.1278 36.4224C44.1278 36.8485 44.0362 37.2662 43.853 37.6752C43.6697 38.0801 43.3906 38.4167 43.0156 38.6852C42.6406 38.9494 42.1676 39.0815 41.5966 39.0815H31.8295ZM44 27.9402H30.9091V23.3635C30.9091 22.4515 31.0668 21.6994 31.3821 21.1071C31.6932 20.5147 32.1129 20.0737 32.6413 19.7839C33.1655 19.4941 33.7472 19.3493 34.3864 19.3493C34.9489 19.3493 35.4134 19.4494 35.7798 19.6497C36.1463 19.8457 36.4361 20.1056 36.6491 20.4295C36.8622 20.7491 37.0199 21.0964 37.1222 21.4714H37.25C37.2756 21.0708 37.4162 20.6681 37.6719 20.2633C37.9276 19.8585 38.294 19.5197 38.7713 19.247C39.2486 18.9743 39.8324 18.8379 40.5227 18.8379C41.179 18.8379 41.7692 18.987 42.2933 19.2853C42.8175 19.5836 43.233 20.0545 43.5398 20.698C43.8466 21.3414 44 22.1788 44 23.21V27.9402ZM42.5938 26.3549V23.21C42.5938 22.1745 42.3935 21.4395 41.9929 21.0048C41.5881 20.5659 41.098 20.3464 40.5227 20.3464C40.0795 20.3464 39.6705 20.4593 39.2955 20.6852C38.9162 20.911 38.6136 21.2328 38.3878 21.6504C38.1577 22.068 38.0426 22.5623 38.0426 23.1333V26.3549H42.5938ZM36.6619 26.3549V23.4146C36.6619 22.9373 36.5682 22.5069 36.3807 22.1234C36.1932 21.7356 35.929 21.4288 35.5881 21.2029C35.2472 20.9728 34.8466 20.8578 34.3864 20.8578C33.8111 20.8578 33.3232 21.0581 32.9226 21.4586C32.5178 21.8592 32.3153 22.4941 32.3153 23.3635V26.3549H36.6619ZM44.2045 12.449C44.2045 13.3354 43.9936 14.1131 43.5717 14.7821C43.1499 15.4469 42.5597 15.9668 41.8011 16.3418C41.0426 16.7125 40.1562 16.8979 39.142 16.8979C38.1193 16.8979 37.2266 16.7125 36.4638 16.3418C35.701 15.9668 35.1087 15.4469 34.6868 14.7821C34.2649 14.1131 34.054 13.3354 34.054 12.449C34.054 11.5627 34.2649 10.7871 34.6868 10.1223C35.1087 9.4533 35.701 8.93342 36.4638 8.56268C37.2266 8.18768 38.1193 8.00018 39.142 8.00018C40.1562 8.00018 41.0426 8.18768 41.8011 8.56268C42.5597 8.93342 43.1499 9.4533 43.5717 10.1223C43.9936 10.7871 44.2045 11.5627 44.2045 12.449ZM42.8494 12.449C42.8494 11.7757 42.6768 11.2218 42.3317 10.7871C41.9865 10.3525 41.5327 10.0307 40.9702 9.82191C40.4077 9.6131 39.7983 9.5087 39.142 9.5087C38.4858 9.5087 37.8743 9.6131 37.3075 9.82191C36.7408 10.0307 36.2827 10.3525 35.9332 10.7871C35.5838 11.2218 35.4091 11.7757 35.4091 12.449C35.4091 13.1223 35.5838 13.6763 35.9332 14.111C36.2827 14.5456 36.7408 14.8674 37.3075 15.0762C37.8743 15.285 38.4858 15.3894 39.142 15.3894C39.7983 15.3894 40.4077 15.285 40.9702 15.0762C41.5327 14.8674 41.9865 14.5456 42.3317 14.111C42.6768 13.6763 42.8494 13.1223 42.8494 12.449ZM34.1818 1.42756H35.4602V6.51562H34.1818V1.42756ZM31.8295 5.03267V3.52415H41.1875C41.6136 3.52415 41.9332 3.46236 42.1463 3.33878C42.3551 3.21094 42.4957 3.04901 42.5682 2.85298C42.6364 2.6527 42.6705 2.44176 42.6705 2.22017C42.6705 2.05398 42.6619 1.91761 42.6449 1.81108C42.6236 1.70455 42.6065 1.61932 42.5938 1.5554L43.9489 1.24858C43.9872 1.35085 44.0256 1.49361 44.0639 1.67685C44.1065 1.86008 44.1278 2.09233 44.1278 2.37358C44.1278 2.79972 44.0362 3.21733 43.853 3.62642C43.6697 4.03125 43.3906 4.3679 43.0156 4.63636C42.6406 4.90057 42.1676 5.03267 41.5966 5.03267H31.8295Z" fill="white"/>
</svg>
