<svg width="41" height="42" viewBox="0 0 41 42" fill="none" xmlns="http://www.w3.org/2000/svg">
<path d="M5.76742 9.78125C3.64317 10.566 2.125 12.6066 2.125 14.9943C2.125 17.6271 3.97064 19.8381 6.4393 20.4088V22.2625C6.4393 22.5953 6.57188 22.9144 6.80786 23.1498C7.04383 23.3851 7.36389 23.5173 7.69762 23.5173C7.98717 23.5173 8.27376 23.418 8.50449 23.2258L11.7148 20.5517H17.0983C19.2762 20.5517 21.1653 19.2985 22.0814 17.4781H15.5216C10.7882 17.4778 6.81111 14.1882 5.76742 9.78125Z" fill="#59D6FF"/>
<path d="M29.1317 0H15.5209C11.3825 0 8.01598 3.35754 8.01598 7.48437C8.01598 11.6113 11.3825 14.9685 15.5209 14.9685H23.5199L28.3252 18.971C28.5516 19.1596 28.8371 19.2628 29.132 19.2626C29.4658 19.2626 29.7858 19.1304 30.0218 18.895C30.2578 18.6597 30.3904 18.3405 30.3904 18.0077V14.8633C33.9317 14.2648 36.6369 11.1838 36.6369 7.48437C36.6369 3.35754 33.2701 0 29.1317 0ZM14.35 36.658C13.5508 35.3131 12.3802 34.2516 11.0146 33.5706C12.5832 31.7278 12.4972 28.9538 10.7534 27.2152C8.91762 25.3842 5.93056 25.3845 4.09488 27.2152C3.20549 28.1018 2.71581 29.281 2.71581 30.5351C2.71581 31.6599 3.11065 32.7237 3.83338 33.571C2.46805 34.2516 1.29742 35.3135 0.498361 36.658C-0.156501 37.7594 -0.166454 39.0837 0.471298 40.2004C1.11538 41.3271 2.27457 42 3.57278 42H11.2755C12.5736 42 13.7334 41.3271 14.3769 40.2004C15.0147 39.0837 15.0048 37.7594 14.35 36.658ZM40.4118 35.69C39.3408 33.8882 37.731 32.4965 35.8596 31.6705C36.9316 30.6012 37.5221 29.1797 37.5221 27.6676C37.5221 26.1554 36.9315 24.7337 35.8593 23.6641C33.6454 21.4567 30.0436 21.4569 27.8301 23.6641C26.7578 24.7337 26.1672 26.1552 26.1672 27.6676C26.1672 29.1797 26.7578 30.6015 27.8297 31.6705C25.9583 32.4965 24.3485 33.8882 23.2775 35.69C22.5045 36.9904 22.4929 38.554 23.2464 39.8729C24.0073 41.205 25.3774 42 26.9114 42H36.778C38.3119 42 39.682 41.205 40.4433 39.8729C41.1964 38.554 41.1849 36.9904 40.4118 35.69Z" fill="#59D6FF"/>
</svg>
