<svg width="41" height="41" viewBox="0 0 41 41" fill="none" xmlns="http://www.w3.org/2000/svg">
<path fill-rule="evenodd" clip-rule="evenodd" d="M31.8806 14.6855H35.3926V34.5577H31.8806V14.6855ZM5.60547 14.6855H9.11749V34.5577H5.60547V14.6855ZM14.3638 14.6855H17.8758V34.5577H14.3638V14.6855ZM23.1223 14.6855H26.6343V34.5577H23.1223V14.6855Z" fill="#59D6FF"/>
<path fill-rule="evenodd" clip-rule="evenodd" d="M34.1619 14.6855H35.3929V34.5577H34.1619V14.6855ZM7.88672 14.6855H9.11775V34.5577H7.88672V14.6855ZM16.6451 14.6855H17.8761V34.5577H16.6451V14.6855ZM25.4034 14.6855H26.6345V34.5577H25.4034V14.6855Z" fill="#59D6FF"/>
<path fill-rule="evenodd" clip-rule="evenodd" d="M31.2466 32.959H36.0278C36.4977 32.959 36.8811 33.3624 36.8811 33.857V35.4172C36.8811 35.9117 36.4978 36.3151 36.0278 36.3151H31.2466C30.7766 36.3151 30.3933 35.9117 30.3933 35.4172V33.857C30.3933 33.3624 30.7766 32.959 31.2466 32.959ZM4.9714 32.959H9.75267C10.2225 32.959 10.6058 33.3624 10.6058 33.857V35.4172C10.6058 35.9117 10.2225 36.3151 9.75267 36.3151H4.9714C4.50143 36.3151 4.11816 35.9117 4.11816 35.4172V33.857C4.11826 33.3624 4.50152 32.959 4.9714 32.959ZM13.7298 32.959H18.511C18.9809 32.959 19.3643 33.3624 19.3643 33.857V35.4172C19.3643 35.9117 18.981 36.3151 18.511 36.3151H13.7298C13.2599 36.3151 12.8766 35.9117 12.8766 35.4172V33.857C12.8766 33.3624 13.2599 32.959 13.7298 32.959ZM22.4882 32.959H27.2695C27.7393 32.959 28.1226 33.3624 28.1226 33.857V35.4172C28.1226 35.9117 27.7393 36.3151 27.2695 36.3151H22.4882C22.0183 36.3151 21.635 35.9117 21.635 35.4172V33.857C21.635 33.3624 22.0182 32.959 22.4882 32.959Z" fill="#59D6FF"/>
<path fill-rule="evenodd" clip-rule="evenodd" d="M34.5408 32.959H36.0286C36.4985 32.959 36.8819 33.3624 36.8819 33.857V35.4172C36.8819 35.9117 36.4986 36.3151 36.0286 36.3151H34.5408C35.0107 36.3151 35.394 35.9117 35.394 35.4172V33.857C35.3939 33.3624 35.0107 32.959 34.5408 32.959ZM8.26562 32.959H9.75348C10.2234 32.959 10.6066 33.3624 10.6066 33.857V35.4172C10.6066 35.9117 10.2234 36.3151 9.75348 36.3151H8.26562C8.7356 36.3151 9.11886 35.9117 9.11886 35.4172V33.857C9.11877 33.3624 8.7355 32.959 8.26562 32.959ZM17.024 32.959H18.5118C18.9817 32.959 19.3651 33.3624 19.3651 33.857V35.4172C19.3651 35.9117 18.9818 36.3151 18.5118 36.3151H17.024C17.4939 36.3151 17.8772 35.9117 17.8772 35.4172V33.857C17.8772 33.3624 17.4939 32.959 17.024 32.959ZM25.7823 32.959H27.2702C27.7401 32.959 28.1233 33.3624 28.1233 33.857V35.4172C28.1233 35.9117 27.7401 36.3151 27.2702 36.3151H25.7823C26.2522 36.3151 26.6356 35.9117 26.6356 35.4172V33.857C26.6356 33.3624 26.2523 32.959 25.7823 32.959Z" fill="#59D6FF"/>
<path fill-rule="evenodd" clip-rule="evenodd" d="M31.2466 12.9258H36.0278C36.4977 12.9258 36.8811 13.3292 36.8811 13.8238V15.3839C36.8811 15.8785 36.4978 16.282 36.0278 16.282H31.2466C30.7766 16.282 30.3933 15.8786 30.3933 15.3839V13.8238C30.3933 13.3292 30.7766 12.9258 31.2466 12.9258ZM4.9714 12.9258H9.75267C10.2225 12.9258 10.6058 13.3292 10.6058 13.8238V15.3839C10.6058 15.8785 10.2225 16.282 9.75267 16.282H4.9714C4.50143 16.282 4.11816 15.8786 4.11816 15.3839V13.8238C4.11826 13.3292 4.50152 12.9258 4.9714 12.9258ZM13.7298 12.9258H18.511C18.9809 12.9258 19.3643 13.3292 19.3643 13.8238V15.3839C19.3643 15.8785 18.981 16.282 18.511 16.282H13.7298C13.2599 16.282 12.8766 15.8786 12.8766 15.3839V13.8238C12.8766 13.3292 13.2599 12.9258 13.7298 12.9258ZM22.4882 12.9258H27.2695C27.7393 12.9258 28.1226 13.3292 28.1226 13.8238V15.3839C28.1226 15.8785 27.7393 16.282 27.2695 16.282H22.4882C22.0183 16.282 21.635 15.8786 21.635 15.3839V13.8238C21.635 13.3292 22.0182 12.9258 22.4882 12.9258Z" fill="#59D6FF"/>
<path fill-rule="evenodd" clip-rule="evenodd" d="M34.5408 12.9258H36.0286C36.4985 12.9258 36.8819 13.3292 36.8819 13.8238V15.3839C36.8819 15.8785 36.4986 16.282 36.0286 16.282H34.5408C35.0107 16.282 35.394 15.8786 35.394 15.3839V13.8238C35.3939 13.3292 35.0107 12.9258 34.5408 12.9258ZM8.26562 12.9258H9.75348C10.2234 12.9258 10.6066 13.3292 10.6066 13.8238V15.3839C10.6066 15.8785 10.2234 16.282 9.75348 16.282H8.26562C8.7356 16.282 9.11886 15.8786 9.11886 15.3839V13.8238C9.11877 13.3292 8.7355 12.9258 8.26562 12.9258ZM17.024 12.9258H18.5118C18.9817 12.9258 19.3651 13.3292 19.3651 13.8238V15.3839C19.3651 15.8785 18.9818 16.282 18.5118 16.282H17.024C17.4939 16.282 17.8772 15.8786 17.8772 15.3839V13.8238C17.8772 13.3292 17.4939 12.9258 17.024 12.9258ZM25.7823 12.9258H27.2702C27.7401 12.9258 28.1233 13.3292 28.1233 13.8238V15.3839C28.1233 15.8785 27.7401 16.282 27.2702 16.282H25.7823C26.2522 16.282 26.6356 15.8786 26.6356 15.3839V13.8238C26.6356 13.3292 26.2523 12.9258 25.7823 12.9258Z" fill="#59D6FF"/>
<path fill-rule="evenodd" clip-rule="evenodd" d="M3.02707 35.4824H37.9707C38.4405 35.4824 38.8239 35.8858 38.8239 36.3805V39.0596H2.17383V36.3805C2.17383 35.8858 2.55709 35.4824 3.02707 35.4824Z" fill="#59D6FF"/>
<path fill-rule="evenodd" clip-rule="evenodd" d="M36.9382 39.6743H38.8254V36.3805C38.8254 35.8859 38.442 35.4824 37.9721 35.4824H36.085C36.5548 35.4824 36.9382 35.8859 36.9382 36.3805V39.6743Z" fill="#59D6FF"/>
<path fill-rule="evenodd" clip-rule="evenodd" d="M2.17383 11.2031H38.8239V12.8618C38.8239 13.3563 38.4406 13.7597 37.9707 13.7597H3.02707C2.55719 13.7597 2.17383 13.3563 2.17383 12.8618V11.2031Z" fill="#59D6FF"/>
<path fill-rule="evenodd" clip-rule="evenodd" d="M36.9382 11.2031H38.8254V12.8618C38.8254 13.3563 38.4421 13.7597 37.9721 13.7597H36.085C36.5548 13.7597 36.9382 13.3563 36.9382 12.8618V11.2031Z" fill="#59D6FF"/>
<path fill-rule="evenodd" clip-rule="evenodd" d="M0.471956 40.9991H40.5276C40.6527 40.9989 40.7727 40.9464 40.8611 40.8533C40.9496 40.7602 40.9994 40.634 40.9997 40.5023V39.1479C40.9997 38.6534 40.6164 38.25 40.1465 38.25H0.853143C0.383263 38.25 0 38.6534 0 39.1479V40.5023C0.000224411 40.634 0.0500171 40.7602 0.138475 40.8533C0.226932 40.9464 0.346845 40.9989 0.471956 40.9991Z" fill="#59D6FF"/>
<path fill-rule="evenodd" clip-rule="evenodd" d="M39.3215 40.9991H40.5281C40.6532 40.9989 40.7732 40.9464 40.8616 40.8533C40.9501 40.7602 40.9999 40.634 41.0002 40.5023V39.1479C41.0002 38.6534 40.6169 38.25 40.147 38.25H38.9404C39.4103 38.25 39.7937 38.6534 39.7937 39.1479V40.5023C39.7934 40.634 39.7435 40.7602 39.655 40.8533C39.5666 40.9464 39.4466 40.9989 39.3215 40.9991Z" fill="#59D6FF"/>
<path fill-rule="evenodd" clip-rule="evenodd" d="M20.6916 0.0443161L40.8876 9.49058C40.9212 9.50581 40.9499 9.5312 40.9698 9.56354C40.9898 9.59589 41.0002 9.63374 40.9998 9.67231V11.4852C40.9998 11.5947 40.9148 11.6841 40.8108 11.6841H0.18899C0.0849179 11.6841 0 11.5947 0 11.4852V9.67231C0 9.59187 0.0424589 9.52315 0.112186 9.49058L20.3082 0.0443161C20.4347 -0.014772 20.5651 -0.014772 20.6916 0.0443161Z" fill="#59D6FF"/>
<path fill-rule="evenodd" clip-rule="evenodd" d="M20.6915 0.0443161L40.8875 9.49057C40.9212 9.50581 40.9498 9.5312 40.9698 9.56354C40.9897 9.59589 41.0001 9.63374 40.9997 9.67231V11.4853C40.9997 11.5947 40.9148 11.6842 40.8107 11.6842H39.1489C39.253 11.6842 39.3379 11.5948 39.3379 11.4853V10.1952L20.6915 1.47365C20.565 1.41447 20.4347 1.41447 20.3082 1.47365L0.112201 10.9199C0.0785291 10.9351 0.0499013 10.9605 0.0299337 10.9929C0.00996622 11.0252 -0.000445152 11.0631 1.45947e-05 11.1016V9.67241C1.45947e-05 9.59197 0.0424735 9.52325 0.112201 9.49067L20.3081 0.0443161C20.4346 -0.014772 20.565 -0.014772 20.6915 0.0443161Z" fill="#59D6FF"/>
</svg>
