<svg width="923" height="109" viewBox="0 0 923 109" fill="none" xmlns="http://www.w3.org/2000/svg">
<path opacity="0.3" d="M922 1.58009C894.823 28.4853 887 6 849.5 19.5C821.441 29.6013 799.503 -4.28417 753 21.5C719.784 43.2204 721.947 81.4228 694.77 54.5175C667.593 27.6123 656.269 45.409 623.052 67.1294C576.55 92.9135 565.833 112.584 539.257 107.067C512.68 112.584 501.964 92.9135 455.461 67.1294C422.244 45.409 410.921 27.6123 383.743 54.5175C356.566 81.4228 345.243 63.6261 312.026 41.9057C265.523 16.1215 254.807 -3.54915 228.23 1.96826C195.014 23.6886 183.69 41.4853 156.513 14.5801C129.336 -12.3251 118.012 5.47155 84.7959 27.1919C38.293 52.9761 27.5762 72.6468 1 67.1294" stroke="#757575" stroke-dasharray="5 5"/>
</svg>
