<svg width="16" height="12" viewBox="0 0 16 12" fill="none" xmlns="http://www.w3.org/2000/svg">
<path d="M9.33716 7.80434C8.93909 8.07008 8.47672 8.21056 8 8.21056C7.52331 8.21056 7.06094 8.07008 6.66287 7.80434L0.106531 3.42723C0.0701562 3.40295 0.0347187 3.37763 0 3.35159V10.524C0 11.3463 0.666406 11.9989 1.47291 11.9989H14.5271C15.3482 11.9989 16 11.3316 16 10.524V3.35156C15.9652 3.37766 15.9297 3.40304 15.8932 3.42736L9.33716 7.80434Z" fill="#003B5D"/>
<path d="M0.626562 2.64718L7.18291 7.02432C7.43109 7.19002 7.71553 7.27285 7.99997 7.27285C8.28444 7.27285 8.56891 7.18999 8.81709 7.02432L15.3734 2.64718C15.7658 2.38541 16 1.9473 16 1.47445C16 0.661419 15.3395 0 14.5276 0H1.47241C0.660531 3.12935e-05 0 0.66145 0 1.47524C0 1.9473 0.23425 2.38541 0.626562 2.64718Z" fill="#003B5D"/>
</svg>
