<svg width="9" height="17" viewBox="0 0 9 17" fill="none" xmlns="http://www.w3.org/2000/svg">
<path d="M8.49657 6.98436L8.24283 9.21418C8.2323 9.31593 8.18531 9.41021 8.11078 9.47912C8.03626 9.54803 7.93938 9.58678 7.83856 9.588H5.54482L5.53336 16.1989C5.53413 16.2772 5.50449 16.3528 5.45084 16.4091C5.39718 16.4654 5.32383 16.4981 5.24664 16.5H2.9228C2.88416 16.5 2.84592 16.4921 2.81036 16.4768C2.77481 16.4615 2.74267 16.439 2.71589 16.4107C2.68911 16.3825 2.66824 16.349 2.65452 16.3124C2.64081 16.2757 2.63454 16.2366 2.63608 16.1975V9.588H0.91578C0.861748 9.58743 0.808356 9.57607 0.758653 9.55456C0.70895 9.53305 0.663909 9.50182 0.626102 9.46265C0.588295 9.42348 0.558463 9.37714 0.538309 9.32627C0.518155 9.2754 0.508074 9.221 0.508642 9.16618L0.50004 6.93636C0.499282 6.88135 0.509212 6.82672 0.529263 6.7756C0.549315 6.72449 0.579094 6.67788 0.616901 6.63843C0.654709 6.59899 0.699803 6.5675 0.74961 6.54574C0.799416 6.52398 0.852958 6.5124 0.907178 6.51164H2.63608V4.35891C2.63608 1.86 4.09834 0.5 6.24298 0.5H8.00055C8.0549 0.500569 8.10859 0.512018 8.15857 0.533689C8.20854 0.555361 8.2538 0.586829 8.29176 0.626288C8.32972 0.665748 8.35962 0.712423 8.37977 0.763636C8.39991 0.814849 8.40988 0.869593 8.40913 0.924727V2.80109C8.40988 2.85623 8.39991 2.91097 8.37977 2.96218C8.35962 3.0134 8.32972 3.06007 8.29176 3.09953C8.2538 3.13899 8.20854 3.17046 8.15857 3.19213C8.10859 3.2138 8.0549 3.22525 8.00055 3.22582H6.9225C5.75699 3.22582 5.53049 3.80764 5.53049 4.64836V6.51164H8.0923C8.15056 6.51238 8.20801 6.52562 8.26086 6.5505C8.31372 6.57537 8.36079 6.61132 8.39897 6.65597C8.43716 6.70062 8.4656 6.75297 8.48242 6.80957C8.49924 6.86617 8.50406 6.92574 8.49657 6.98436Z" fill="#003B5D"/>
</svg>
