<svg width="114" height="112" viewBox="0 0 114 112" fill="none" xmlns="http://www.w3.org/2000/svg">
<g filter="url(#filter0_d_274_1173)">
<rect x="14" y="14" width="86" height="84" rx="10" fill="white"/>
</g>
<path fill-rule="evenodd" clip-rule="evenodd" d="M70.0878 70.3865L63.5364 70.3312L63.5289 65.3772C63.5289 64.0802 63.6499 62.8297 64.6243 61.9619C64.6254 61.961 64.6265 61.96 64.6275 61.9591C65.8972 60.8151 68.2005 59.0938 69.9934 57.0029C70.486 56.5865 71.2061 56.5471 71.6682 57.0062L71.672 57.0099C72.129 57.4573 72.1164 58.0636 71.6824 58.6452C70.6715 59.7825 69.5868 60.7442 68.4611 61.8628C68.3254 61.9977 68.2492 62.1807 68.2492 62.3715C68.2492 62.5623 68.3254 62.7453 68.4611 62.8803C68.5969 63.0151 68.7811 63.0909 68.9731 63.0909C69.1651 63.0909 69.3492 63.0151 69.485 62.8803C70.6401 61.7326 71.7509 60.7451 72.7871 59.5761L72.7877 59.5754C72.7933 59.569 72.7989 59.5625 72.8044 59.5559L73.3388 58.9079L73.3408 58.9056C74.1455 57.9215 74.5613 56.8492 74.5613 55.5945V55.5916L74.5291 47.8057C74.5175 44.5196 75.8954 43.9165 76.9272 44.5458C77.2843 44.7635 77.5718 45.1072 77.5819 45.4903V45.4923L77.9988 59.8196C78.0256 60.9333 77.616 61.9022 76.83 62.6928L70.3002 69.1704C70.2328 69.2373 70.1794 69.3166 70.143 69.404C70.1065 69.4914 70.0877 69.5851 70.0878 69.6796V70.3865ZM50.4636 70.3312L43.9016 70.3865V69.6796C43.9016 69.5851 43.8829 69.4916 43.8465 69.4043C43.8101 69.317 43.7567 69.2377 43.6894 69.1709L37.1684 62.6912C36.3734 61.9013 35.9744 60.9324 36.0013 59.8193L36.4074 45.4934C36.4197 45.1092 36.7092 44.7646 37.0684 44.5462C37.4938 44.2875 38.0551 44.2035 38.5087 44.5482C39.1083 45.004 39.4771 46.0192 39.4708 47.8057L39.4388 55.5902C39.427 56.8445 39.8528 57.9173 40.645 58.9014L40.655 58.9133L41.2001 59.5613C41.2041 59.5661 41.2082 59.5708 41.2123 59.5754L41.2127 59.5759C42.2482 60.7441 43.3584 61.731 44.5018 62.8779C44.7831 63.16 45.2419 63.1621 45.5258 62.8826C45.8098 62.6032 45.8118 62.1472 45.5306 61.8651C44.4146 60.7459 43.3292 59.7833 42.3177 58.6452C41.8837 58.0636 41.871 57.4573 42.328 57.0099L42.3355 57.0025C42.7898 56.5445 43.5141 56.5873 44.0056 57.0021C45.7892 59.0942 48.0936 60.8165 49.3748 61.9612L49.3756 61.9619C50.35 62.8297 50.4711 64.0802 50.4711 65.3772L50.4636 70.3312ZM57 35L68.138 39.7439V48.6929C68.138 54.9202 63.5766 60.3015 57.4058 61.3704L57 61.4409L56.5941 61.3704C50.4234 60.3015 45.862 54.9202 45.862 48.6929V39.7439L57 35ZM54.2264 45.4645H50.5278C50.3358 45.4645 50.1516 45.5403 50.0158 45.6752C49.88 45.8101 49.8037 45.9931 49.8037 46.184V50.2569C49.8037 50.4477 49.88 50.6307 50.0158 50.7657C50.1516 50.9006 50.3358 50.9764 50.5278 50.9764H54.2264V54.6514C54.2264 54.8422 54.3026 55.0252 54.4384 55.1602C54.5742 55.2951 54.7584 55.3709 54.9504 55.3709H59.0495C59.2415 55.3709 59.4257 55.2951 59.5615 55.1602C59.6973 55.0252 59.7736 54.8422 59.7736 54.6514V50.9764H63.4721C63.6642 50.9764 63.8484 50.9006 63.9841 50.7657C64.1199 50.6307 64.1962 50.4477 64.1962 50.2569V46.184C64.1962 45.9931 64.1199 45.8101 63.9841 45.6752C63.8484 45.5403 63.6642 45.4645 63.4721 45.4645H59.7736V41.7895C59.7736 41.5986 59.6973 41.4156 59.5615 41.2807C59.4257 41.1458 59.2415 41.07 59.0495 41.07H54.9504C54.7584 41.07 54.5742 41.1458 54.4384 41.2807C54.3026 41.4156 54.2264 41.5986 54.2264 41.7895V45.4645ZM54.9504 46.9034C55.1425 46.9034 55.3267 46.8276 55.4625 46.6927C55.5982 46.5578 55.6745 46.3748 55.6745 46.184V42.5089H58.3254V46.184C58.3254 46.3748 58.4017 46.5578 58.5375 46.6927C58.6733 46.8276 58.8575 46.9034 59.0495 46.9034H62.748V49.5374H59.0495C58.8575 49.5374 58.6733 49.6132 58.5375 49.7482C58.4017 49.8831 58.3254 50.0661 58.3254 50.2569V53.9319H55.6745V50.2569C55.6745 50.0661 55.5982 49.8831 55.4625 49.7482C55.3267 49.6132 55.1425 49.5374 54.9504 49.5374H51.2519V46.9034H54.9504ZM61.244 71.7509L72.5757 71.8465C73.1316 71.8571 73.5699 72.3033 73.5699 72.8556L73.5485 75.0226C73.5485 75.5643 73.0888 76.0104 72.5436 75.9998L61.212 75.9042C60.6561 75.9042 60.2177 75.4474 60.2177 74.9058L60.2392 72.7388C60.2392 72.1971 60.6988 71.7509 61.244 71.7509ZM63.1362 73.578C62.9652 73.1531 62.4841 72.9512 62.0671 73.1212C61.6396 73.2912 61.4365 73.7585 61.6075 74.1834C61.7678 74.5977 62.2489 74.7995 62.6765 74.6402C63.0934 74.4702 63.2965 73.9922 63.1362 73.578ZM52.7559 71.7509C53.3012 71.7509 53.7502 72.1971 53.7609 72.7388L53.7822 74.9058C53.7822 75.4474 53.3332 75.9042 52.788 75.9042L41.4564 75.9998C40.9004 76.0104 40.4515 75.5643 40.4407 75.0226L40.4301 72.8556C40.4194 72.3033 40.8684 71.8571 41.4136 71.8465L52.7559 71.7509ZM52.3925 73.578C52.2215 73.1531 51.7511 72.9512 51.3235 73.1212C50.9065 73.2912 50.6927 73.7585 50.8638 74.1834C51.0349 74.5977 51.5052 74.7995 51.9328 74.6402C52.3497 74.4702 52.5635 73.9922 52.3925 73.578Z" fill="#59D6FF"/>
<defs>
<filter id="filter0_d_274_1173" x="0" y="0" width="114" height="112" filterUnits="userSpaceOnUse" color-interpolation-filters="sRGB">
<feFlood flood-opacity="0" result="BackgroundImageFix"/>
<feColorMatrix in="SourceAlpha" type="matrix" values="0 0 0 0 0 0 0 0 0 0 0 0 0 0 0 0 0 0 127 0" result="hardAlpha"/>
<feOffset/>
<feGaussianBlur stdDeviation="7"/>
<feComposite in2="hardAlpha" operator="out"/>
<feColorMatrix type="matrix" values="0 0 0 0 0 0 0 0 0 0 0 0 0 0 0 0 0 0 0.1 0"/>
<feBlend mode="normal" in2="BackgroundImageFix" result="effect1_dropShadow_274_1173"/>
<feBlend mode="normal" in="SourceGraphic" in2="effect1_dropShadow_274_1173" result="shape"/>
</filter>
</defs>
</svg>
