<svg width="17" height="17" viewBox="0 0 17 17" fill="none" xmlns="http://www.w3.org/2000/svg">
<path d="M8.50377 4.39062C6.2351 4.39062 4.39844 6.22926 4.39844 8.49589C4.39844 10.7645 6.2371 12.6011 8.50377 12.6011C10.7724 12.6011 12.6091 10.7625 12.6091 8.49589C12.6091 6.22726 10.7704 4.39062 8.50377 4.39062ZM8.50377 11.1605C7.0311 11.1605 5.8391 9.96786 5.8391 8.49589C5.8391 7.02391 7.03177 5.83127 8.50377 5.83127C9.97577 5.83127 11.1684 7.02391 11.1684 8.49589C11.1691 9.96786 9.97644 11.1605 8.50377 11.1605Z" fill="#003B5D"/>
<path d="M11.7988 0.550257C10.3268 0.481591 6.68082 0.484925 5.20749 0.550257C3.91282 0.610923 2.77082 0.923584 1.85015 1.84423C0.311485 3.38287 0.508152 5.45617 0.508152 8.49678C0.508152 11.6087 0.334818 13.634 1.85015 15.1493C3.39482 16.6933 5.49815 16.4913 8.50282 16.4913C11.5855 16.4913 12.6495 16.4933 13.7395 16.0713C15.2215 15.496 16.3402 14.1714 16.4495 11.7921C16.5188 10.3194 16.5148 6.67415 16.4495 5.20084C16.3175 2.39222 14.8102 0.688921 11.7988 0.550257ZM14.1288 14.1314C13.1202 15.14 11.7208 15.05 8.48349 15.05C5.15015 15.05 3.81348 15.0993 2.83815 14.1214C1.71482 13.0034 1.91815 11.2081 1.91815 8.48612C1.91815 4.80285 1.54015 2.15023 5.23682 1.9609C6.08615 1.9309 6.33615 1.9209 8.47415 1.9209L8.50415 1.9409C12.0568 1.9409 14.8442 1.56891 15.0115 5.26484C15.0495 6.10816 15.0582 6.36149 15.0582 8.49612C15.0575 11.7907 15.1202 13.1354 14.1288 14.1314Z" fill="#003B5D"/>
<path d="M12.7718 5.18816C13.3017 5.18816 13.7312 4.75866 13.7312 4.22885C13.7312 3.69903 13.3017 3.26953 12.7718 3.26953C12.242 3.26953 11.8125 3.69903 11.8125 4.22885C11.8125 4.75866 12.242 5.18816 12.7718 5.18816Z" fill="#003B5D"/>
</svg>
