<svg width="49" height="51" viewBox="0 0 49 51" fill="none" xmlns="http://www.w3.org/2000/svg">
<path opacity="0.2" d="M25.155 49.5799C12.2641 49.8121 1.63166 39.2196 1.40675 25.9207C1.18185 12.6219 11.4497 1.65276 24.3406 1.42051C37.2315 1.18827 47.864 11.7808 48.0889 25.0797C48.3138 38.3785 38.0459 49.3477 25.155 49.5799Z" stroke="white"/>
<path d="M16.0247 24.0337C20.7027 24.0337 21.7085 19.8694 21.7085 14.7598L23.5797 14.7598C23.5797 18.6176 21.8021 22.041 19.0888 24.0848L33.5098 24.0848V26.0776L19.0655 26.0776C21.7787 28.1215 23.5564 31.5449 23.5564 35.4026H21.6851C21.6851 30.293 20.6793 26.1287 16.0013 26.1287" fill="white"/>
</svg>
