<svg width="159" height="176" viewBox="0 0 159 176" fill="none" xmlns="http://www.w3.org/2000/svg">
<mask id="mask0_274_2426" style="mask-type:luminance" maskUnits="userSpaceOnUse" x="0" y="-30" width="159" height="206">
<path d="M159 -30H0V176H159V-30Z" fill="white"/>
</mask>
<g mask="url(#mask0_274_2426)">
<path d="M135.95 94.2269C135.945 94.1723 135.942 94.1151 135.937 94.0605L129.816 58.0859C129.793 57.7218 129.619 57.6697 129.31 57.6697C127.499 57.6801 125.688 57.6749 123.875 57.6749C123.272 57.6749 123.272 57.6749 123.251 58.2862L118.956 82.8579C118.793 83.2273 118.697 83.6122 118.691 84.018C118.689 84.135 118.694 84.2521 118.665 84.3665C118.665 84.3665 118.647 84.3535 118.658 84.3379C118.707 84.1402 118.676 83.9373 118.697 83.7397C118.608 82.7747 118.66 81.8045 118.632 80.8369C118.608 80.8161 118.582 80.7849 118.556 80.7849C116.743 80.8291 114.927 80.8083 113.113 80.7927C112.737 80.7901 112.672 80.98 112.674 81.2869C112.693 83.04 112.656 84.7957 112.695 86.5513C112.713 87.3889 112.669 88.229 112.3 89.0093C112.217 89.1055 112.16 89.2252 112.046 89.2928C111.565 89.9613 110.89 90.1069 110.115 90.0601C109.245 90.0081 108.692 89.6075 108.341 88.8116C108.167 88.4137 108.216 87.9923 108.071 87.6022C107.949 87.4305 108.042 87.2354 108.011 87.0533C108.011 79.7107 108.011 72.3654 108.013 65.0202C108.013 64.8381 107.956 64.6482 108.065 64.474C108.099 64.3387 108.136 64.2061 108.164 64.0708C108.39 62.9472 109.17 62.2501 110.23 62.2241C111.503 62.1929 112.202 62.7183 112.521 63.933C112.633 64.3595 112.638 64.7913 112.638 65.2283C112.646 67.153 112.656 69.0804 112.664 71.0051C112.796 71.1065 112.955 71.0987 113.108 71.0987C114.794 71.0987 116.478 71.0987 118.164 71.0987C118.317 71.0987 118.476 71.117 118.603 70.9973C118.608 68.9867 118.616 66.9761 118.611 64.9656C118.608 64.5208 118.647 64.0682 118.51 63.6313C118.387 63.4882 118.507 63.3035 118.424 63.1553C118.325 62.6975 118.268 62.2267 118.125 61.7845C117.767 60.6869 117.192 59.7453 116.34 58.9156C115.283 57.8882 114.007 57.4851 112.648 57.1833C112.482 57.0819 112.269 57.2432 112.111 57.0923C110.939 56.9336 109.77 56.9258 108.598 57.0949C108.632 57.1547 108.702 57.1313 108.749 57.1651C108.715 57.1469 108.676 57.1521 108.64 57.1547C108.445 57.1703 108.245 57.1131 108.052 57.1938C107.551 57.2042 107.091 57.381 106.626 57.5449C103.987 58.4734 102.607 60.4164 102.152 63.1058C102.106 63.2463 102.199 63.4102 102.085 63.5428C101.937 64.1332 101.926 64.7419 101.926 65.3401C101.916 72.4071 101.913 79.474 101.929 86.5409C101.929 87.1548 101.931 87.779 102.08 88.3877C102.22 88.5593 102.085 88.7778 102.173 88.9599C102.664 92.5519 105.057 94.7627 108.507 95.1113C108.744 95.2231 109.014 95.0489 109.245 95.2075C110.006 95.3272 110.767 95.3324 111.529 95.2075C111.729 95.0593 111.975 95.2153 112.183 95.1113C112.417 95.1191 112.641 95.0697 112.867 95.015C114.571 94.6145 115.971 93.7015 117.185 92.4687C117.392 92.4478 117.34 92.5675 117.301 92.6819C117.294 92.838 117.286 92.9915 117.278 93.1475C117.216 93.3036 117.26 93.4674 117.244 93.6287C117.182 93.8862 117.19 94.1593 117.114 94.4064C117.013 94.7497 117.151 94.82 117.444 94.82C119.055 94.8174 120.669 94.8174 122.279 94.8226C122.544 94.8226 122.666 94.7159 122.726 94.4636L123.836 89.8624C123.895 89.298 124.036 89.1524 124.594 89.1498C125.937 89.1498 127.283 89.1498 128.626 89.1498C128.811 89.1498 129 89.1185 129.115 89.3188C129.245 89.4255 129.169 89.5815 129.213 89.709C129.491 91.371 129.951 92.9941 130.279 94.6457C130.323 94.8746 130.461 94.9214 130.676 94.9188C132.427 94.9084 134.181 94.9058 135.932 94.9032C136.174 94.6743 136.036 94.4506 135.95 94.2269ZM124.846 83.2325L126.525 71.0987L128.016 83.2325H124.846Z" fill="#59D6FF"/>
</g>
<mask id="mask1_274_2426" style="mask-type:luminance" maskUnits="userSpaceOnUse" x="0" y="-30" width="159" height="206">
<path d="M159 -30H0V176H159V-30Z" fill="white"/>
</mask>
<g mask="url(#mask1_274_2426)">
<path d="M99.7179 84.5767C99.7179 75.7905 99.7179 67.0043 99.7179 58.2155C99.7179 57.7057 99.7153 57.7031 99.2191 57.7031C98.1617 57.7031 97.1069 57.7031 96.0495 57.7031C95.3974 57.7031 94.7453 57.7135 94.0932 57.6979C93.823 57.6927 93.7243 57.7915 93.7503 58.049C93.7606 58.14 93.7528 58.2363 93.7528 58.3273C93.7528 68.8094 93.7528 79.2914 93.7477 89.7735C93.7477 89.9192 93.823 90.0804 93.6931 90.2105L88.0917 58.0594C88.0579 57.7525 87.9047 57.6615 87.5981 57.6641C85.9068 57.6797 84.2154 57.6719 82.5215 57.6719C81.5732 57.6719 81.5732 57.6719 81.4407 58.603L76.0966 89.1233L76.1018 89.1285C75.8524 89.3912 76.0394 89.7787 75.8394 90.0622C75.7796 88.1895 75.8082 86.309 75.8056 84.431C75.8004 75.9231 75.803 67.4152 75.803 58.9073C75.803 58.642 75.8212 58.3793 75.8264 58.1166C75.8342 57.8279 75.7121 57.6562 75.3847 57.6562C73.0854 57.6589 70.7862 57.6589 68.4869 57.6562C68.2739 57.6562 68.1258 57.7187 68.0686 57.9372L64.6392 79.0652C64.6028 79.216 64.634 79.3695 64.6054 79.5203C64.5847 79.5802 64.5691 79.64 64.5301 79.692L64.5275 79.6946C64.5275 79.6946 64.5275 79.6946 64.5275 79.692C64.4548 79.7492 64.434 79.8273 64.4314 79.9131C64.421 79.8273 64.4028 79.7466 64.3404 79.6868C64.3249 79.6634 64.3223 79.6374 64.33 79.6088C64.3093 79.5724 64.2781 79.5515 64.2365 79.5437C64.2209 79.5437 64.2053 79.5437 64.1898 79.5411C64.1924 79.5333 64.195 79.5229 64.2001 79.5151L60.9968 58.564C60.9682 57.6745 60.9682 57.6745 60.0926 57.6771C57.8557 57.6771 55.6214 57.6771 53.3845 57.6797C52.7844 57.6797 52.7844 57.6823 52.7844 58.2935C52.7844 58.3403 52.7844 58.3871 52.7844 58.4339C52.7844 68.4426 52.7844 78.4539 52.7792 88.4626C52.7792 88.7669 52.8493 89.0817 52.696 89.373C52.5453 89.2507 52.7038 89.0582 52.5973 88.9256L47.196 58.0178C47.2298 57.7499 47.1025 57.6719 46.8478 57.6745C44.9591 57.6823 43.0677 57.6823 41.1789 57.6745C40.9217 57.6745 40.7996 57.7525 40.8308 58.0204C40.7425 58.1686 40.8724 58.3559 40.7399 58.4964L35.8867 86.1087C35.762 86.2622 35.7049 86.439 35.7178 86.6471C35.6971 86.5275 35.736 86.4026 35.7308 86.2778C35.6477 86.0541 35.6659 85.82 35.6659 85.5885C35.6659 76.4694 35.6659 67.3502 35.6659 58.2285C35.6659 57.7031 35.6659 57.7031 35.1385 57.7031C33.5251 57.7031 31.9117 57.7005 30.2957 57.7057C30.145 57.7057 29.984 57.664 29.8411 57.7499C29.8359 57.9059 29.8281 58.0594 29.8281 58.2155C29.8281 68.2632 29.8281 78.3109 29.8281 88.356C29.8281 88.5901 29.8359 88.8242 29.8099 89.0556C29.7631 89.4484 29.5527 89.6747 29.1318 89.6695L22.9329 89.6721L22.9459 94.8897C23.7513 94.8975 24.5567 94.9157 25.3595 94.9079C27.0456 94.8949 28.7343 94.9547 30.423 94.8689C30.701 94.8403 31.005 94.8273 31.3064 94.7805C32.634 94.5932 33.8732 93.8883 34.5929 92.5722C34.8319 92.593 34.7098 92.7413 34.6916 92.8505C34.6215 93.3733 34.5487 93.8935 34.4786 94.4163C34.4526 94.575 34.4084 94.7336 34.5072 94.8845C36.3076 94.8897 38.108 94.8923 39.9085 94.9053C40.1371 94.9079 40.2358 94.8273 40.28 94.5984C40.3891 94.0418 40.5268 93.493 40.6541 92.9389C40.9139 91.8049 41.1789 90.6735 41.4309 89.5394C41.5063 89.2013 41.6544 89.1467 42.1662 89.1493C43.6315 89.1571 44.5174 89.1571 45.7878 89.1597C46.388 89.1597 46.5621 89.1571 46.6348 89.5654C46.7335 90.1429 46.879 90.7125 47.0115 91.2821C47.2791 92.4266 47.5493 93.5684 47.8195 94.7128C47.8975 94.8039 48.0274 94.8013 48.1105 94.8845C51.3113 94.8897 54.5095 94.8949 57.7102 94.9001C58.5234 94.9027 58.5234 94.9001 58.5234 94.099C58.5234 87.8618 58.5208 81.6272 58.5286 75.3899C58.5286 75.0284 58.4429 74.6486 58.6299 74.3001C58.7676 74.4328 58.6351 74.6226 58.7313 74.7657L61.9009 94.692C61.9321 94.9339 62.0931 94.8949 62.2412 94.8949C63.6831 94.8923 65.1276 94.8871 66.5722 94.8819C66.7202 94.8377 66.7774 94.6842 66.8969 94.6088L70.1263 74.4744C70.1471 74.3859 70.2016 74.3053 70.1912 74.2039C70.2432 74.2429 70.2354 74.3209 70.2848 74.3677C70.29 74.6174 70.2952 74.8645 70.2952 75.1142C70.2952 81.5491 70.3003 87.9866 70.2874 94.4215C70.2874 94.8169 70.3965 94.9131 70.7784 94.9053C72.0047 94.8819 73.2309 94.8975 74.4572 94.8975C76.4915 94.8975 78.5257 94.8949 80.56 94.9001C80.8016 94.9001 80.9913 94.9105 81.0588 94.5802C81.3758 93.0586 81.7447 91.5474 82.0565 90.0232C82.2305 89.1727 82.2357 89.1337 83.1113 89.1337C84.3064 89.1337 85.5041 89.1623 86.6966 89.1207C87.1954 89.1025 87.3539 89.2897 87.45 89.7423C87.7981 91.3731 88.193 92.9936 88.5542 94.6192C88.5905 94.7857 88.7386 94.9027 88.9075 94.9027C92.433 94.8923 95.956 94.8897 99.4815 94.8845C99.7569 94.7597 99.7102 94.51 99.7102 94.2785C99.7179 91.0454 99.7179 87.8124 99.7179 84.5767ZM42.5195 83.5129L44.1978 71.3792L45.6891 83.5129H42.5195ZM83.0749 83.4193L84.7532 71.2855L86.2445 83.4193H83.0749Z" fill="#59D6FF"/>
</g>
<mask id="mask2_274_2426" style="mask-type:luminance" maskUnits="userSpaceOnUse" x="0" y="-30" width="159" height="206">
<path d="M159 -30H0V176H159V-30Z" fill="white"/>
</mask>
<g mask="url(#mask2_274_2426)">
<path d="M44.9045 52.3262C45.5826 51.6265 45.923 51.1063 45.923 50.7656C45.923 50.5653 45.8139 50.4353 45.593 50.3754C45.2319 50.2558 44.8889 50.3546 44.559 50.6746C44.229 50.9945 43.9251 51.304 43.6445 51.6057C42.3844 52.6071 40.9945 53.0961 39.4772 53.0779C37.9184 53.0779 36.6688 52.3782 35.7283 50.9763C35.0476 49.9957 34.7098 48.755 34.7098 47.2542C34.7098 45.3737 35.1697 43.553 36.0894 41.7895C36.8091 40.3876 37.8898 39.0689 39.3291 37.8256C40.3684 36.9438 41.4284 36.5459 42.5091 36.6239C43.0288 36.6629 43.4496 36.8788 43.7692 37.269C44.0888 37.6591 44.2187 38.1039 44.1589 38.6059C44.0784 39.3862 43.738 39.987 43.1405 40.4084C42.8001 40.5878 42.5611 40.6997 42.4208 40.7387C42.2805 40.7803 42.2104 40.8479 42.2104 40.9494C42.2104 41.2303 42.439 41.5112 42.8989 41.7895C43.5588 42.1901 44.2992 42.3513 45.1176 42.2707C46.097 42.1719 46.8063 41.8311 47.2454 41.2511C47.6844 40.6711 47.9053 40.0104 47.9053 39.2691C47.9053 38.2495 47.5441 37.399 46.8245 36.7175C45.8061 35.7578 44.3667 35.287 42.5065 35.3052C39.2278 35.326 36.2401 36.4965 33.5407 38.8192C30.7426 41.2615 29.3423 44.1044 29.3423 47.3453C29.3423 49.4469 30.0412 51.2286 31.4415 52.6877C32.9795 54.3082 35.0891 55.1197 37.7677 55.1197C38.2665 55.1197 38.7862 55.0781 39.3265 55C41.6076 54.7373 43.4652 53.8478 44.9045 52.3262Z" fill="#003B5D"/>
</g>
<mask id="mask3_274_2426" style="mask-type:luminance" maskUnits="userSpaceOnUse" x="0" y="-30" width="159" height="206">
<path d="M159 -30H0V176H159V-30Z" fill="white"/>
</mask>
<g mask="url(#mask3_274_2426)">
<path d="M57.1101 45.6933C57.1101 45.2719 56.9542 44.9286 56.645 44.6581C56.3359 44.3876 55.9409 44.2523 55.4603 44.2523C54.3198 44.2133 53.1714 44.6633 52.0127 45.6049C52.0933 45.3838 52.153 45.2147 52.192 45.0951C52.3505 44.6945 52.3427 44.4162 52.1608 44.2549H48.8925C48.973 44.5749 48.7522 45.3057 48.2326 46.4476C47.8922 47.1681 47.5519 47.8885 47.2141 48.609L44.5148 54.3729H48.2326C48.973 52.5522 49.5212 51.1814 49.8823 50.2607C50.4227 49.059 50.8826 48.2007 51.2619 47.6779C51.9218 46.7571 52.631 46.2369 53.3923 46.1173C53.3715 46.5542 53.5118 46.9236 53.8132 47.2253C54.1119 47.527 54.4834 47.6779 54.9225 47.6779C55.5019 47.6779 56.0059 47.4932 56.4372 47.1212C56.8659 46.7493 57.0893 46.2733 57.1101 45.6933Z" fill="#003B5D"/>
</g>
<mask id="mask4_274_2426" style="mask-type:luminance" maskUnits="userSpaceOnUse" x="0" y="-30" width="159" height="206">
<path d="M159 -30H0V176H159V-30Z" fill="white"/>
</mask>
<g mask="url(#mask4_274_2426)">
<path d="M73.9636 43.231C74.4624 43.231 74.9041 43.0724 75.2834 42.7498C75.6627 42.4299 75.8731 42.0398 75.9121 41.5794C75.9719 41.119 75.8368 40.7288 75.5068 40.4089C75.1769 40.089 74.7612 39.9277 74.2623 39.9277C73.7635 39.9277 73.3219 40.089 72.9425 40.4089C72.5632 40.7288 72.3528 41.119 72.3138 41.5794C72.2723 42.0398 72.4125 42.4299 72.7347 42.7498C73.0543 43.0698 73.4622 43.231 73.9636 43.231Z" fill="#003B5D"/>
</g>
<mask id="mask5_274_2426" style="mask-type:luminance" maskUnits="userSpaceOnUse" x="22" y="25" width="116" height="75">
<path d="M137.956 25.9219H22V99.0103H137.956V25.9219Z" fill="white"/>
</mask>
<g mask="url(#mask5_274_2426)">
<path d="M118.87 49.9914C114.121 49.029 109.627 47.8872 104.774 47.6505C104.311 47.627 103.847 47.6374 103.383 47.6791C101.162 47.8689 98.9509 48.7377 96.8946 49.8665C94.7249 50.9485 92.0605 52.4155 91.053 52.4155C90.2207 52.4155 89.5842 52.0956 89.1488 51.4557C88.9117 51.076 88.7803 50.5558 88.7622 49.8951C90.3676 49.9966 91.6972 49.7443 92.7485 49.1434C93.9983 48.423 94.591 47.4632 94.5343 46.2615C94.493 45.0208 93.7612 44.2795 92.3337 44.0403C92.0167 43.9804 91.6998 43.9492 91.3828 43.9492C90.4913 43.9492 89.628 44.1703 88.7957 44.6099C87.5073 45.2913 86.5153 46.2901 85.8221 47.6114C85.3454 48.5114 85.1083 49.4243 85.1083 50.3451C85.1083 50.5532 85.1238 50.7535 85.1496 50.9485C84.5698 51.6742 83.8741 52.236 83.0572 52.6262C83.6731 51.9057 83.99 51.0864 84.0081 50.1656C84.0287 49.4452 83.8998 48.7039 83.6215 47.9444C83.1861 46.6829 82.9567 45.9624 82.9387 45.7829C82.9 45.3225 83.0469 44.9012 83.3845 44.5214C83.4643 44.4616 83.5726 44.381 83.7117 44.2821H80.1429C80.0424 44.342 79.9548 44.42 79.8749 44.5214C79.5966 44.8986 79.4574 45.3174 79.4574 45.7725L77.4011 48.4828H77.1924C76.7157 48.4828 76.2905 48.6518 75.9143 48.9926C75.4196 49.453 75.1619 50.085 75.1413 50.8835C75.1413 50.9121 75.1439 50.9407 75.1439 50.9719L75.1413 50.9745C74.7857 51.2945 74.4172 51.4557 74.041 51.4557C73.4251 51.4557 73.1391 51.076 73.1778 50.3139C73.1778 49.8743 73.4458 49.0342 73.9817 47.7909C74.1801 47.2915 74.5564 46.441 75.1129 45.2393C75.332 44.7789 75.3397 44.459 75.1413 44.2795H71.8997C71.9976 44.6385 71.5029 45.952 70.4129 48.2123C70.266 48.5166 70.1371 48.8027 70.016 49.0758C69.9568 49.1356 69.9001 49.2163 69.846 49.3229C69.4878 50.0044 69.0729 50.5532 68.5962 50.9745C68.2587 51.2737 67.9134 51.4349 67.5552 51.4557C67.2769 51.4765 67.0501 51.3855 66.8723 51.1852C66.6945 50.985 66.6044 50.6962 66.6044 50.3139C66.6224 49.8743 66.8904 49.0342 67.4083 47.7909C67.6274 47.2707 68.0139 46.4202 68.5679 45.2393C68.7869 44.7789 68.7869 44.459 68.5679 44.2795H65.3263C65.4654 44.7191 65.0196 45.952 63.9889 47.973C63.3731 49.1538 62.8474 49.9836 62.4119 50.4647C61.6981 51.2242 61.1235 51.6066 60.6855 51.6066C60.5257 51.6066 60.3685 51.5676 60.2087 51.4869C59.8712 51.3075 59.7037 50.9667 59.7037 50.4673C59.7037 50.1474 59.763 49.7885 59.8815 49.3853C60.5747 47.7233 61.1596 46.363 61.6363 45.3017C61.894 44.7815 61.8631 44.4408 61.5461 44.2821H58.3921C58.4127 44.3212 58.423 44.3914 58.423 44.4928C58.423 44.974 57.9257 46.2433 56.9362 48.3059C56.2611 49.687 55.9158 50.7483 55.8952 51.4895C55.8772 52.3895 56.1039 53.1048 56.578 53.6354C57.0547 54.166 57.7273 54.4417 58.6008 54.4599C59.4125 54.4599 60.1675 54.2102 60.8607 53.7082C61.4946 53.2478 62.1001 52.5664 62.6747 51.6664C62.6155 52.5274 62.8835 53.227 63.4787 53.768C63.9941 54.2284 64.6383 54.4599 65.4113 54.4599C66.2436 54.4391 67.027 54.1504 67.7613 53.5886C68.3282 53.1516 68.8204 52.6912 69.2379 52.21C69.3074 52.8369 69.578 53.3571 70.0495 53.768C70.5262 54.2284 71.1292 54.4599 71.8636 54.4599C72.7371 54.4599 73.5488 54.1712 74.3013 53.5886C74.7419 53.2504 75.131 52.8967 75.4814 52.5299C75.6386 52.8369 75.8499 53.11 76.1153 53.3467C76.9476 54.088 78.0891 54.4573 79.5347 54.4573C81.122 54.4573 82.6681 53.9761 84.1755 53.0163C84.6316 52.7276 85.0465 52.3895 85.4227 52.0072C85.4768 52.1346 85.5335 52.2646 85.6031 52.3869C86.0386 53.188 86.6931 53.7576 87.5666 54.0984C88.1799 54.3376 88.8344 54.4599 89.5301 54.4599C92.1662 54.3507 94.0859 52.3687 95.1965 51.8069C95.2094 51.7965 95.2223 51.7861 95.2352 51.7757C95.4645 51.7002 95.6938 51.6274 95.9232 51.5572C104.236 49.0914 112.884 54.6524 121.32 54.4755C126.234 54.3741 131.416 52.4077 134.024 48.2045C129.764 51.2711 124.003 51.0344 118.87 49.9914ZM89.5945 46.8624C89.8522 46.4826 90.1898 46.1211 90.6072 45.7829C91.1226 45.3824 91.589 45.1821 92.0039 45.1821C92.5785 45.1821 92.8774 45.502 92.8954 46.1419C92.916 47.0236 92.5424 47.7233 91.7797 48.2435C91.0169 48.7637 90.03 49.0056 88.8189 48.964C88.94 48.1629 89.1977 47.4632 89.5945 46.8624ZM80.1686 52.4909C79.7718 52.9825 79.1869 53.227 78.4138 53.227C77.8598 53.2478 77.3934 53.0345 77.0146 52.5924C76.7776 52.3427 76.6668 52.0436 76.6874 51.6976H77.2002C77.6434 51.6976 78.0196 51.5416 78.3314 51.232C78.6432 50.9225 78.7978 50.548 78.7978 50.1058C78.7978 49.6454 78.6303 49.2657 78.2927 48.964L79.7203 47.073C79.9573 47.575 80.1377 47.9548 80.2562 48.2149C80.5938 49.0368 80.7613 49.8275 80.7613 50.587C80.7613 51.3647 80.5629 52.0019 80.1686 52.4909Z" fill="#003B5D"/>
</g>
</svg>
