<svg width="51" height="51" viewBox="0 0 51 51" fill="none" xmlns="http://www.w3.org/2000/svg">
<path opacity="0.2" d="M25.9432 49.5801C12.6317 49.8124 1.65245 39.22 1.42032 25.9211C1.18819 12.6223 11.7911 1.65306 25.1025 1.42071C38.414 1.18836 49.3933 11.7808 49.6254 25.0797C49.8575 38.3785 39.2546 49.3477 25.9432 49.5801Z" stroke="#003B5D"/>
<path d="M16.5138 24.0337C21.3445 24.0337 22.383 19.8694 22.383 14.7598L24.3153 14.7598C24.3153 18.6176 22.4797 22.041 19.6779 24.0848L34.5693 24.0848V26.0776L19.6538 26.0776C22.4555 28.1215 24.2912 31.5449 24.2912 35.4026H22.3589C22.3589 30.293 21.3203 26.1287 16.4897 26.1287" fill="#003B5D"/>
</svg>
