<svg width="179" height="11" viewBox="0 0 179 11" fill="none" xmlns="http://www.w3.org/2000/svg">
<path fill-rule="evenodd" clip-rule="evenodd" d="M67.9345 8.6218C67.761 8.81253 68.1744 8.71533 67.5553 8.75297L67.9345 8.6218ZM146.832 8.44767C146.285 8.47968 146.599 8.33229 146.539 8.55751L146.832 8.44767ZM96.4384 9.28835C95.8924 9.32059 96.2051 9.17298 96.1451 9.39841L96.4384 9.28835ZM175.952 4.96512C175.404 4.99862 175.718 4.84973 175.658 5.07538L175.952 4.96512ZM73.2756 9.62502C73.5163 9.72352 72.6945 9.67947 73.5864 9.74433L73.2756 9.62502ZM165.463 3.37842L165.779 3.27003C164.887 3.30442 165.709 3.28841 165.463 3.37842ZM30.9558 1.85717L31.2705 1.74856C30.3787 1.78338 31.2007 1.76736 30.9558 1.85717ZM160.683 7.02212C160.924 7.12042 160.102 7.07658 160.993 7.14143L160.683 7.02212ZM153.587 2.75828L153.901 2.64987C153.009 2.68469 153.831 2.66846 153.587 2.75828ZM173.884 3.65065L173.574 3.53135C173.645 3.69448 173.394 3.63758 173.884 3.65065ZM65.4951 8.43348L65.1853 8.31397C65.2547 8.47708 65.0052 8.42041 65.4951 8.43348ZM131.485 6.49459L131.482 6.65579C131.799 6.5117 131.868 6.65865 131.485 6.49459ZM44.2763 8.5511L44.2735 8.71209C44.5897 8.56798 44.6584 8.71493 44.2763 8.5511ZM125.034 8.58403L125.031 8.74501C125.347 8.60112 125.416 8.74786 125.034 8.58403ZM166.945 7.31998L166.942 7.48118C167.257 7.33706 167.327 7.48402 166.945 7.31998ZM126.358 8.40088L126.355 8.56165C126.671 8.41775 126.74 8.56471 126.358 8.40088ZM134.85 8.34237L134.847 8.50357C135.164 8.35948 135.232 8.50641 134.85 8.34237ZM33.3508 7.46594L33.348 7.62693C33.6651 7.48305 33.7338 7.63 33.3508 7.46594ZM144.585 1.86212C144.973 1.71172 144.899 1.85597 144.588 1.70092L144.585 1.86212ZM98.5648 0.78423C98.9524 0.633615 98.8786 0.778079 98.5676 0.623026L98.5648 0.78423ZM104.785 1.09922C105.173 0.948624 105.1 1.09309 104.788 0.93802L104.785 1.09922ZM32.1267 1.96415C32.5143 1.81332 32.4405 1.95778 32.1295 1.80295L32.1267 1.96415ZM135.898 2.46752C136.287 2.31692 136.213 2.46116 135.901 2.30631L135.898 2.46752ZM123.825 2.32575C124.212 2.17492 124.139 2.3194 123.828 2.16454L123.825 2.32575ZM138.161 2.57589C138.549 2.42506 138.475 2.56952 138.164 2.41468L138.161 2.57589ZM172.813 6.39048L172.811 6.55147C173.127 6.40758 173.196 6.55453 172.813 6.39048ZM153.356 7.63317L153.354 7.79437C153.671 7.65049 153.739 7.79743 153.356 7.63317ZM116.223 6.45006C116.188 6.23889 116.484 6.37194 115.898 6.31241L116.223 6.45006ZM165.238 8.95634C165.202 8.74558 165.499 8.87821 164.913 8.8189L165.238 8.95634ZM42.2228 8.66748C42.1872 8.45674 42.4844 8.58938 41.8972 8.52983L42.2228 8.66748ZM174.366 5.05629C174.331 4.84556 174.627 4.9784 174.041 4.91865L174.366 5.05629ZM170.546 4.36142L170.878 4.16678C170.351 4.29731 170.502 4.15549 170.546 4.36142ZM167.682 6.94446C167.259 7.02124 167.351 6.93868 167.364 7.13676L167.682 6.94446ZM146.935 3.23556C147.815 3.26878 147.319 3.29047 147.502 3.14254L146.935 3.23556ZM147.218 8.80855C148.087 8.84417 147.573 8.89871 147.779 8.71737L147.218 8.80855ZM167.304 3.48524L167.854 3.54586C167.334 3.29631 167.473 3.4531 167.304 3.48524ZM118.368 4.48291L118.233 4.26806C118.133 4.34209 117.751 4.30981 118.368 4.48291ZM171.562 8.16892C171.961 8.38039 171.663 8.29704 172.299 8.30168L171.562 8.16892ZM78.0791 2.14589L78.2709 1.93115C77.7257 2.07234 77.736 1.94054 78.0791 2.14589ZM153.237 8.50344L153.794 8.54912C153.285 8.27952 153.424 8.43608 153.237 8.50344ZM15.5481 5.20716L16.1052 5.25305C15.5966 4.98345 15.7346 5.14001 15.5481 5.20716ZM38.7009 8.51626C38.3473 8.3469 38.2827 8.4278 37.9944 8.50393L38.7009 8.51626ZM99.5102 1.15036C99.7292 1.05924 100.109 1.1296 99.4133 0.933375L99.5102 1.15036ZM47.3211 2.21721L48.0618 2.11043C47.4703 2.09408 47.6289 1.99523 47.3211 2.21721ZM85.2453 2.12345C85.7226 2.24675 85.3388 2.23273 85.8431 2.13388C85.2139 1.98641 85.7015 2.02872 85.2453 2.12345ZM176.254 9.35199C176.708 9.4626 176.218 9.48764 176.853 9.36244C176.352 9.24606 176.737 9.24544 176.254 9.35199ZM48.1476 8.69917C48.6001 8.80954 48.1113 8.83482 48.7463 8.70962C48.2457 8.59324 48.6289 8.59239 48.1476 8.69917ZM152.315 6.114C152.807 6.23711 152.727 6.24433 153.088 6.07645L152.315 6.114ZM121.697 9.089C122.188 9.21211 122.109 9.21933 122.47 9.05125L121.697 9.089ZM131.639 2.53766L130.934 2.51932C131.042 2.66825 131.325 2.67685 131.639 2.53766ZM66.6095 9.48417C65.9525 9.29315 66.078 9.299 65.9029 9.47765L66.6095 9.48417ZM56.3984 0.793199L56.9932 0.922418L56.533 0.63774L56.3984 0.793199L55.8372 0.724634L55.6753 0.91557L56.3775 0.91878L56.3984 0.792769L56.3984 0.793199ZM131.472 1.78446C132.139 1.84345 132.005 1.9014 132.378 1.69133L131.472 1.78446ZM148.166 8.64856L148.511 8.75921L148.195 8.85509L147.947 8.7246L148.166 8.64856ZM79.386 0.839059C79.2747 0.6285 79.458 0.699514 78.8876 0.647581C79.0104 0.863507 78.8272 0.792493 79.386 0.839059ZM77.7283 9.03789L78.0811 9.24707L78.5101 9.12409L77.7256 9.03785L77.7283 9.03789ZM152.209 3.35987C152.583 3.4525 152.49 3.5228 152.948 3.32153C152.112 3.27399 152.593 3.27915 152.209 3.35987ZM173.12 5.16954C173.498 5.26354 173.019 5.25216 173.857 5.23341C173.407 5.01652 173.496 5.09085 173.12 5.16954ZM161.172 8.6757C161.549 8.76967 161.07 8.75831 161.909 8.7398C161.458 8.52287 161.548 8.597 161.172 8.6757ZM133.273 7.08834C133.748 7.20751 133.559 7.19796 134.06 7.10208C133.562 6.98855 133.752 6.98583 133.273 7.08834ZM89.3954 2.12589C89.871 2.24507 89.6814 2.23551 90.183 2.13964C89.685 2.0261 89.8749 2.02339 89.3954 2.12589ZM141.564 7.78328C142.039 7.90246 141.849 7.89289 142.351 7.79703C141.852 7.68369 142.043 7.68099 141.564 7.78328ZM33.3275 1.89253L33.3308 1.70076L32.83 1.70106C32.9528 1.9172 32.7686 1.84596 33.3275 1.89253ZM142.478 8.73447L142.011 8.55236L141.794 8.83082L142.478 8.73511L142.478 8.73447ZM127.723 1.96318L128.633 1.7825L127.718 1.77364L127.723 1.96232L127.723 1.96318ZM132.961 6.54639C132.414 6.41521 132.849 6.41333 132.132 6.52289L132.384 6.65323L132.961 6.54639ZM159.49 7.75203C159.88 7.95949 159.713 7.8993 160.414 7.88806C160.018 7.69686 160.193 7.76946 159.49 7.75203ZM174.244 6.61502L173.819 6.70512L174.197 6.85942L174.581 6.75848L174.244 6.61459L174.244 6.61502ZM87.1477 2.1377C87.8599 2.17876 87.6047 2.1995 88.1081 2.10343C87.7992 2.03346 87.3295 1.93226 87.1477 2.1377ZM160.315 3.70734L160.862 3.60149L160.151 3.50167L159.97 3.69442L160.315 3.70734L159.966 3.79576L160.116 3.89052L158.817 3.89499L159.898 4.15799L159.295 4.29666L158.794 4.21429L158.346 4.34921L158.119 4.21974C157.69 4.45682 158.18 4.27462 157.328 4.40723L157.167 4.18332L156.335 4.33565L155.414 4.05305L156.153 4.04441L157.667 4.07407L158.47 4.05534C157.956 3.90535 158.195 3.94548 157.482 3.93326L155.337 3.71435L155.067 3.84205C154.922 3.7366 154.738 3.87139 155.019 3.70148L154.339 3.71781L153.732 3.43941C153.199 3.65466 153.761 3.50858 153.151 3.58255L152.774 3.57597L152.269 3.62098L152.039 3.55518L151.437 3.54963L151.079 3.62756L150.369 3.34585C151.308 3.11443 151.201 3.66371 151.987 3.31121C151.471 3.16206 151.855 3.21655 151.078 3.203L150.323 3.18982L149.763 3.24636L148.68 3.1646L148.274 3.31361L148.45 3.48222L147.747 3.45662C147.06 3.3499 146.825 3.25905 146.2 3.41649C146.686 3.56964 146.357 3.39533 146.493 3.59858L145.992 3.51276L145.254 3.58449L145.435 3.39906L144.838 3.44116L144.499 3.27637L144.114 3.37472C144.593 3.52602 144.274 3.36523 144.436 3.55688L143.166 3.45698C143.738 3.20431 143.094 3.4962 143.937 3.35268L143.267 3.22473L143.017 3.2645C142.664 3.03208 143.263 3.20766 142.589 3.12269L142.214 3.11616L141.471 3.02396L140.714 3.10031L139.873 2.96056L139.623 3.0843L139.07 3.00703L138.313 3.10148L137.907 2.95963L137.294 2.95798L137.052 3.01166L136.763 2.94462L136.157 2.94718L135.827 2.77995L135.2 2.99484L135.603 3.11232L134.112 3.20558L134.842 3.29281L134.091 3.32275L133.525 3.30965L132.784 3.30427C133.304 3.47867 132.939 3.29254 133.112 3.49685L132.389 3.49802L131.069 3.47305L130.33 3.45241L130.57 3.33797C131.074 3.43288 130.796 3.3994 131.447 3.41075C132.285 3.42538 131.814 3.44429 132.065 3.28977L132.297 3.41977L132.797 3.17122L133.534 3.2547L133.771 3.12321C134.424 3.08638 134.808 2.98414 135.215 2.8063L133.966 2.91949C134.074 2.65722 133.916 2.79246 134.46 2.65556L133.723 2.62117C133.184 2.53985 133.605 2.67746 133.175 2.47124L132.462 2.49732C132.547 2.7126 132.388 2.5686 132.95 2.73062L132.07 2.74195L131.202 3.05189L130.13 2.84567L129.411 2.82968L129.262 3.04754L128.838 2.8649L128.505 2.93832L128.052 2.85226L127.49 2.94816L126.735 2.76792C126.068 2.89062 126.485 2.8824 125.951 2.76394L126.98 2.59093L126.366 2.49603L126.607 2.30842L127.312 2.30392L128.444 2.32582L129.184 2.33099L128.45 2.22711L129.594 2.15686L129.937 2.22163L130.539 2.2276L130.781 2.10093L131.039 2.24667C131.411 2.21246 131.659 2.16663 132.031 2.18195L132.583 2.20104L131.838 2.35513C132.033 2.37855 132.142 2.40455 132.405 2.39494L134.297 2.33343L133.188 2.26305L134.299 2.21333L134.878 2.15885L135.155 2.29716L135.993 2.23838L136.941 2.26633L137.319 2.27292L138.257 2.15345L138.766 2.21485L139.195 2.15559C140.238 2.17853 139.753 2.22065 139.963 2.0437L139.224 2.02305L139.776 1.93817L139.213 1.88938C138.288 1.85493 139.091 1.91417 138.266 2.01409L137.511 2.00091C136.791 2.08824 137.473 2.03836 136.754 2.12549L136.377 2.11891L135.858 2.10124L135.389 1.8586C136.175 1.83271 136.065 1.88183 136.604 1.77884C136.071 1.66017 136.488 1.65238 135.817 1.77695L135.443 1.67719L134.893 1.76535L134.497 1.74207L133.918 1.80324L133.029 1.7029L133.14 1.90872L132.789 1.95534L133.717 2.01329C133.306 2.20161 132.951 2.10649 132.411 2.04971L131.279 2.02997L130.337 1.91063L131.29 1.79528L130.529 1.73894L130.34 1.73888L129.964 1.7323C129.275 1.78896 129.193 1.85579 128.777 2.0382L128.072 2.04741L127.317 2.03123L126.939 2.02464L126.196 1.93245L125.431 1.92965L124.928 1.86705L124.768 2.02853C124.54 2.19075 124.636 2.14442 124.262 2.25328L125.228 2.44926L124.479 2.46677C124.108 2.46245 123.868 2.41304 123.537 2.37821L123.16 2.37163L123.536 2.19282L122.786 2.15541L122.409 2.15206L122.031 2.14547L121.285 2.21168L120.898 2.19459L120.144 2.18144C119.427 2.06903 120.108 2.14292 119.392 2.03074L118.26 2.011C117.806 1.96303 117.794 1.92278 117.318 1.92567L116.766 1.9255L116.931 2.03604L115.982 1.98675L115.446 2.04587L114.852 1.94809L113.538 2.0074L113.002 2.08029L113.357 2.1711L112.616 2.18227L112.782 2.07172L112.036 2.03717L111.093 2.02395L110.716 2.01736L110.138 2.07876C109.796 1.9294 110.032 1.95655 109.428 1.93719L109.566 2.26255L109.204 2.18389L108.693 2.26539L108.617 2.05976C108.069 2.01489 107.07 1.88378 106.565 1.87498C106.043 1.86587 106.285 1.85781 105.875 1.9202L105.582 1.80486L104.697 1.76444L104.864 1.65972L104.23 1.58859L103.177 1.66989L102.591 1.67193L102.07 1.51215L101.651 1.51107L101.124 1.65259L100.712 1.6398L100.116 1.43714C99.5692 1.39832 98.3509 1.24423 97.9054 1.2427L97.3708 1.23833L97.5002 1.63586L96.0593 1.6288L95.7183 1.81661C95.3536 1.62424 95.5094 1.8345 95.5874 1.55189L94.5674 1.68695L94.4168 1.43049L93.8731 1.33489L93.7084 1.11673L93.2081 0.935766L92.9311 1.07582C92.5348 1.01401 92.7902 0.9795 92.4508 1.1288L93.0538 1.19939C92.4939 1.31599 93.1129 1.28266 92.2931 1.22917L92.0113 1.34116L92.6814 1.54661L92.0478 1.70112L91.5275 1.59085L90.9312 0.983662L90.192 1.05968L90.5872 1.29091L90.0086 1.30751L89.8853 1.01536L89.3863 1.26995L90.1209 1.4042L90.1425 1.65173L89.5915 1.5603L89.2419 1.72902L88.8596 1.62676L88.2582 1.62079L87.3322 1.67977L86.9527 1.6697L86.5758 1.66312L85.8565 1.56833C86.0448 1.50703 86.467 1.31073 86.7078 1.19566L87.2258 1.44389L87.7868 1.51826L88.6466 1.42325L88.1215 1.334L88.0589 1.1441C87.4766 1.21618 88.1413 1.22003 87.683 1.13216C88.2194 1.03258 87.8028 1.00981 88.4695 1.15794L88.8137 0.989989L88.0945 0.785833L87.7841 1.00948L86.9556 0.838298L86.573 1.10956L86.0411 0.94635L86.26 0.76222L85.7388 0.550538C85.3381 0.735156 85.3298 0.699488 85.6091 0.935798L85.339 1.09298C85.1559 0.809912 85.3667 0.887218 84.6829 0.799936L84.3935 0.938271C84.1036 0.698976 84.3516 0.784468 83.7893 0.733967L83.7467 0.926985L83.7737 1.11691L84.4605 1.23654L84.5187 1.42744C83.9493 1.57639 83.5033 1.70058 82.833 1.50568L83.4439 1.42763L83.6909 1.47263L83.2941 1.07539L82.2765 0.968288L82.0926 0.625997C81.4662 0.774598 81.6956 0.705186 81.8853 0.968997L81.6586 1.09013L81.8333 1.29017L81.1413 1.2135L81.1036 0.82317L80.5825 0.805467L80.6914 1.15377C80.1537 1.32695 80.5956 1.13057 80.3315 1.35438L81.8289 1.54241L80.9479 1.73027L79.5064 1.50145C79.1475 1.5404 78.3237 1.65822 77.8979 1.65079C77.268 1.6398 77.6365 1.66776 77.1598 1.5632L76.5619 1.55557C76.0728 1.75415 76.6081 1.61365 76.0098 1.68652L74.8748 1.66672L74.1286 1.73293L73.7422 1.71585L72.7987 1.69939L72.0526 1.76409L71.6661 1.7468L71.1004 1.73693L70.3533 1.80312L69.9669 1.78604L68.2715 1.75646L66.5764 1.86596L66.1987 1.85787L64.3055 1.82483L63.5594 1.89104L63.1729 1.87397L61.6637 1.84763L60.9175 1.91427L60.5311 1.89719L59.9654 1.88732L59.5094 1.92243C58.6402 1.78498 59.4588 2.01261 58.6444 1.85136L58.0957 1.93867L57.6995 1.91561L56.1912 1.88929C55.3614 1.94758 55.3003 1.8759 55.0562 2.07573L56.1715 2.10122C55.9441 2.31534 55.9688 2.07379 56.1851 2.24484L56.5126 2.01374L57.8432 2.36484L58.2546 2.07341L59.2019 2.07745L59.7804 2.01908L60.332 2.12042L60.8844 2.02543L61.2788 2.04781L61.9875 1.98698L62.537 2.66763L62.2189 2.768L61.9542 2.62L61.2691 2.60352L60.7053 2.58809L59.1946 2.34192L58.7963 2.54272L57.7948 2.43181L57.2391 2.51082C56.8197 2.43891 57.1171 2.45659 56.5585 2.44684C55.9634 2.43646 56.1298 2.4484 55.8175 2.57729C55.0269 2.52927 55.0852 2.50876 54.485 2.33014L53.8659 2.51913L53.1617 2.52837L52.7841 2.51877L51.8541 2.34129L51.2826 2.50829L50.5375 2.25632L50.1795 2.34824C50.2638 2.62636 50.426 2.42122 50.0744 2.59765C49.3223 2.44588 49.0025 2.28379 48.2864 2.46419L48.4902 2.63611L49.0026 2.68918C48.1012 2.76409 48.4758 2.84856 47.9056 2.68554C48.1479 2.48546 48.1633 2.62803 47.8127 2.4443L47.4104 2.61641L47.1743 2.56169L46.9873 2.70677L45.046 2.52219L44.144 2.63563L43.9022 2.44518L42.6419 2.40554L42.251 2.18063L41.7476 2.37938L41.4654 2.31116L41.1716 2.44878L40.7398 2.22337L40.3725 2.38532L39.7565 2.29061L39.2077 2.43539L37.9906 2.2176L37.4313 2.30343C36.8795 2.21156 37.2698 2.21148 36.7802 2.33233L37.2799 2.39874L37.4538 2.64936C36.8764 2.64295 36.9191 2.64692 36.413 2.49083L36.5282 2.32061L35.4823 2.35704C35.1051 2.16079 34.7153 1.98197 34.1431 1.93087L34.0822 2.2564L32.9542 2.04016L32.6618 2.25035L31.8527 2.14344L31.465 2.14744L30.8993 2.13757L30.3409 2.06152L29.5886 2.12525L29.2021 2.10753C28.3558 2.09276 28.4231 1.96476 27.6806 1.8687L27.3437 2.02494L26.9681 1.844L26.4238 2.14129C25.9392 2.07536 25.891 2.02801 25.6366 1.90193L24.663 2.03134L24.3001 1.94062L23.8577 2.06207L23.6883 2.27441L22.7924 2.13541L21.6586 2.04738L21.2836 2.0374L20.7178 2.02753C19.5365 1.90314 17.81 1.51628 17.1413 1.48352L16.9306 1.96532L16.5151 2.08165L17.1118 2.25439L16.8974 2.43795L16.9323 2.5813L16.7813 2.76274L17.0453 2.95099C17.7316 3.09902 17.2783 2.92965 17.4876 3.14127L17.5027 3.39988C18.111 3.57648 18.6398 3.60616 18.7641 3.83998C18.2097 3.79048 18.4551 3.8249 17.9956 3.64982L17.2913 3.616L16.9135 3.61243L16.5358 3.60584L15.9581 3.66702L15.4251 3.5701L15.0284 3.57954L14.2729 3.56635L14.2952 3.76782L14.9963 3.78372L15.0953 4.08814L17.1477 4.34204L16.4163 4.68322L15.7612 4.68729L15.3861 4.68656L15.0092 4.67998L14.2857 4.67145L14.2593 4.86152L16.0855 4.79456L17.0211 5.31639C16.4948 5.44908 16.706 5.3983 15.9398 5.38515L15.1936 5.45136L14.2735 5.42777L14.2431 5.68731L14.9759 5.72162L14.1582 5.80488L13.4245 5.76603L13.2497 6.02994C13.8258 6.31276 14.8846 6.46214 15.7315 6.55054L17.8064 6.58674L19.8949 6.40359L20.4277 6.51041L20.8226 6.5018L21.5669 6.59401L21.9538 6.59021L22.5195 6.60009C24.1011 6.76547 24.9611 6.81707 26.1412 7.26501L26.6575 7.29555C27.0263 7.30737 27.2739 7.26325 27.6022 7.23991L28.1606 7.31596L28.8734 7.3228L29.3443 7.14845L30.0394 7.15003C29.7438 7.38858 29.8518 7.17432 29.9873 7.3741L30.7518 7.43416L31.1273 7.21014L32.0872 7.04927L32.1466 7.37625L33.4654 7.33253L33.9926 7.50814L33.8842 7.64296L34.7042 7.68224L35.1211 7.49016L35.8862 7.66455L36.4832 7.67281L36.8275 7.60024L37.4279 7.61459L37.9333 7.7149L38.0865 7.92382L38.6245 7.73148L39.1126 7.64699L39.1407 7.76826L40.1785 8.10306L40.9734 8.09993L40.8058 8.20744L41.5355 8.32265L41.9277 8.31529L42.6823 8.32845L43.5612 8.46758L44.3754 8.33517L44.6808 8.50068C45.059 8.27842 44.4575 8.43219 45.134 8.37123L45.8745 8.3764L45.4835 8.05612C46.092 8.11776 45.608 7.96851 46.0649 8.18704L46.6628 8.19424L47.9643 8.06904L48.5361 8.08656L49.1137 8.02538L50.0243 8.13707C49.8017 8.33276 49.8255 8.09054 50.0418 8.26224L50.3043 8.12774C51.0287 8.24157 50.2595 8.04321 51.1107 8.18853L51.8699 8.09069L52.2677 8.16975L52.1445 8.33983L52.8445 8.31114L52.65 8.01754C53.0874 7.82301 52.8969 7.86425 53.4292 7.84555L53.0996 8.14336L53.7703 8.26981L53.9586 8.40765L54.3042 8.16201L54.8155 8.07297L54.0099 7.86688L54.6488 7.81602L54.812 7.65912L55.6649 7.65248L56.0612 7.51816L56.8146 7.5481L56.8227 7.74394C55.9343 7.58549 56.6929 7.7815 55.9639 7.67729L55.1608 7.73884L55.3811 7.93128L54.9855 8.08584L55.1926 8.32132C55.7404 8.5395 55.4849 8.52212 56.2781 8.57127L56.5075 8.44761L57.0919 8.40958L57.3455 8.22627L57.7908 8.24394L58.0281 8.38027C58.5756 8.31146 57.9117 8.30763 58.37 8.39549C57.5705 8.61083 57.6374 8.40252 57.4388 8.64858L57.7671 8.57917L58.3311 8.69062L58.8843 8.59586L59.6415 8.61682L59.4777 8.50374L60.3973 8.50428C59.8709 8.74785 60.0924 8.51166 59.8752 8.7546L60.8555 8.75663L61.1207 8.87622C61.9742 8.73654 61.1482 8.93548 62.0352 8.81575L62.8306 8.89013L62.6742 8.76597L63.4352 8.81929L63.7135 8.7023L64.3295 8.79141L64.5052 8.93592L64.841 8.79108L65.4635 8.86653L65.1091 8.74839C65.7419 8.74781 65.492 8.71546 65.8457 8.87599L66.9948 8.95546L68.015 8.86411L68.5066 8.93469L69.0706 8.83796L69.4253 8.93974L70.0258 8.94613C70.3297 8.89524 71.3646 8.8289 71.7102 8.83493C72.3749 8.84653 71.8995 8.81671 72.34 8.90297L72.8277 8.84087L73.2194 8.86127C73.8609 8.87246 73.4871 8.84441 73.9726 8.95514L74.5383 8.86383L75.0578 9.12349L75.5353 8.97832L75.1071 8.85158L75.8604 8.83522L76.4389 8.77707C76.6935 8.89669 76.7416 8.94683 77.1951 9.00556L77.5834 8.81233L78.3142 8.81001L79.0366 8.82972L79.0867 9.02134L79.8984 9.23378L80.3869 9.17513L80.9481 9.29257L81.3004 9.12261L82.4422 9.31326L82.8345 9.30568C83.4964 9.31723 83.251 9.33792 83.6235 9.18166L83.0474 8.95287C82.6263 9.03056 82.8818 9.04385 82.295 9.0194L81.7437 9.00052L82.4634 8.86668L82.8631 8.89153L83.051 8.89481L83.7744 8.91173L83.9373 9.0754L83.7747 9.30378L84.5465 9.19454L85.1138 9.27268L85.8757 9.21945L86.2089 9.37769L87.1679 9.22219L87.5738 9.24865L88.1514 9.18746L88.704 9.28925L89.062 9.19883L89.4566 9.2126L89.4731 9.33927L90.9653 9.2146L91.3131 9.40108C91.5932 9.23503 91.7079 9.39936 91.3616 9.12593C92.4865 9.05793 92.2624 8.82796 93.4083 8.88628L93.0316 9.12708C92.2436 9.13916 92.5059 9.07054 91.9465 9.21127C92.322 9.39565 92.1843 9.32306 92.8718 9.34733L93.2856 9.22968L94.3669 9.16006L95.1232 9.17434C95.3813 9.14353 96.1323 9.00227 96.5881 8.93078L96.7231 9.15984L97.0092 9.20789L96.7966 9.3917L97.8458 9.32389L98.1029 9.45346L98.4518 9.22057L99.0936 9.31638L99.4366 9.16391C99.9631 9.33155 99.8584 9.20055 99.6638 9.37477L100.748 9.33126L100.868 9.21321L101.892 9.29761L101.739 9.17136C102.638 9.15023 102.86 9.26692 103.023 8.97955L102.532 9.01771L102.357 8.87362L101.732 8.94539L101.753 8.81938L102.489 8.81887L103.235 8.75482L103.621 8.7719L103.811 8.77521L104.557 8.81234C103.85 8.85425 103.934 8.80296 103.397 8.90577C103.93 9.02572 103.85 8.98279 104.56 8.99474C105.11 9.08099 104.662 8.93559 105.123 9.15398L107.215 8.98057L107.507 9.0384L107.941 8.94975C107.345 8.77335 107.836 8.84242 107.014 8.89999L105.883 8.88025L105.16 8.86334C105.343 8.60172 104.909 8.85573 105.698 8.7276L106.071 8.82713L107.214 8.66514C106.168 8.58747 106.303 8.70932 106.127 8.47761L106.977 8.56608L107.004 8.35491L106.716 8.40501L106.281 8.32421C105.49 8.39071 105.208 8.53736 104.776 8.32831L106.084 8.26954L106.648 8.27421L108.3 8.15384L108.067 8.4712L108.461 8.57173C109.464 8.36941 110.011 8.3105 111.192 8.27901C111.675 8.49777 111.135 8.3441 111.708 8.41976L111.545 8.16999L112.112 8.09377L112.829 8.18098L112.692 7.92174C113.249 7.79194 112.89 7.83305 113.637 7.84609L115.712 7.88229L116.733 7.78729C117.452 7.87992 116.888 7.62185 117.755 7.87272C117.124 7.98077 117.194 7.82935 117.077 8.10676C117.613 8.02224 117.913 7.98722 118.524 8.0179L118.358 8.11555L118.903 8.21504L119.496 8.22647L120.5 8.12903L120.747 8.1736L120.611 7.91524L121.36 7.82992L121.75 7.85007L122.301 7.86917C121.783 8.02201 122.164 7.85836 121.919 8.06552L123.084 8.35453L123.496 8.23253L122.879 8.10875L123.633 8.08615C124.247 8.09105 123.94 8.08119 124.387 8.18327L124.923 8.08714L124.39 8.00033L125.346 7.90205L125.588 8.04534L125.852 7.90873L127.027 8.04484L126.29 8.07806C126.675 8.26993 126.517 8.2086 127.216 8.22081L128.347 8.24053L128.984 8.144L129.617 8.15398C129.545 8.36198 129.566 8.31885 129.131 8.43721C129.83 8.63929 129.727 8.48033 130.609 8.41779L131.175 8.42766L131.921 8.36145L132.308 8.37853L133.054 8.31232L133.441 8.32963L134.192 8.34273L134.955 8.25356L134.022 8.19272L134.76 8.13756L136.648 8.17912L137.026 8.18572L137.772 8.11972L138.159 8.13658L139.291 8.15634L140.404 8.08404L140.067 8.00174C140.51 7.75112 140.406 7.91423 140.586 7.7094L139.503 7.67154C140.307 7.53014 140.419 7.76396 140.984 7.51611L139.9 7.47395C140.068 7.27925 139.709 7.43337 140.233 7.29654L139.61 7.22755L139.134 7.27307L138.667 7.20721L138.191 7.25661L137.8 7.23623L136.461 7.3442L135.928 7.25631L135.454 7.30832L134.958 7.31279L134.59 7.23619L134.04 7.32455L133.644 7.30129L133.078 7.2914L132.338 7.35858L131.77 7.27202L131.182 7.25639C130.697 7.33922 131.086 7.32641 130.441 7.31515C129.777 7.30356 130.252 7.33338 129.812 7.24713L129.516 7.30655L128.917 7.28404L128.013 7.43123L127.611 7.40421C126.98 7.3932 127.35 7.42117 126.873 7.31662L126.275 7.3092L125.739 7.38704L125.345 7.36466L124.583 7.45363L125.342 7.50542C125.861 7.5192 125.788 7.47918 126.271 7.46715C125.879 7.63901 126.04 7.58326 125.341 7.57106L124.399 7.55462L123.945 7.50257L123.452 7.55597L123.108 7.37601L122.187 7.52594L122.358 7.37994L121.968 7.26678L122.517 7.17603L122.534 7.30271L123.269 7.32887L123.647 7.33331L124.393 7.2671L125.187 7.26223C124.722 7.11396 125.129 7.08598 124.403 7.22057L123.91 7.16696L123.101 7.01615L122.841 7.16597L122.517 7.17603L122.162 7.08673L121.768 7.09407L121.014 7.08092C120.547 7.00817 120.824 7.14886 120.606 6.94786L120.088 6.91491L120.523 6.81314C120.994 6.87818 120.636 6.9122 121.052 6.73754L120.482 6.50067L119.909 6.59617L119.513 6.57312L119.136 6.56653C118.553 6.51008 118.144 6.5615 117.692 6.48452L117.459 6.54503L116.032 6.61227L115.558 6.62554C114.901 6.57639 114.934 6.65641 114.621 6.50607L115.738 6.50402L115.727 6.31157L115.031 6.36057L114.997 6.16148L115.932 6.16445L116.438 6.12096L117.203 6.26671L117.088 6.14328L117.616 5.90341L118.18 6.01508L118.766 6.00915L119.269 6.07176L120.099 5.96287L120.343 6.02289L120.574 5.90227L120.781 6.0581L121.584 6.04949L121.035 5.94626L121.617 5.91337C122.098 6.13361 121.569 5.97238 122.18 6.0739L122.501 5.92362L123.312 6.0127L123.621 5.95823C123.885 6.13679 124.184 6.24041 124.802 6.25118C125.582 6.2648 125.134 6.28689 125.607 6.07663L126.124 6.13689L126.218 6.30258L127.121 6.25073L126.846 6.09395L126.124 6.13689L126.366 5.94929L127.087 5.94163L127.513 6.07953L127.753 6.0357L128.197 6.10438L128.207 6.29832L128.771 6.24788L129.135 6.33862L129.684 6.25069L130.081 6.27396L131.595 6.30039C132.304 6.25054 132.155 6.29099 132.352 6.10713L129.518 6.05767L128.94 6.11907L128.577 6.02856L128.196 6.10351L128.218 5.97751L129.139 5.90746L129.52 5.92057L130.652 5.94033L131.481 5.92336C131.879 6.08983 131.402 5.93898 131.988 6.03835L132.307 5.88783C132.891 5.98736 132.47 5.84223 132.849 6.0355L133.166 5.92541L133.862 6.07383L134.11 5.8702L134.472 6.13637L134.44 6.41374L135.372 6.22162L135.72 6.32198L135.334 6.57359L135.903 6.67286C135.567 6.81921 135.336 6.731 134.856 6.64427L134.627 6.71841L134.917 6.86147L135.521 6.94823L134.544 7.08576C134.942 7.19518 134.578 7.18926 135.344 7.19122L136.083 7.19637L135.741 6.94432L137.019 6.86887C137.304 6.68008 137.185 6.78566 137.687 6.62778L137.902 6.75145L138.617 6.65369C138.086 6.39578 137.945 6.50009 137.072 6.44999L137.627 6.33049L137.998 6.42824L139.117 6.21483C138.637 6.05941 138.956 6.22041 138.793 6.02855L139.704 6.03088L141.162 5.90561L141.214 6.06003L140.282 6.0978L140.51 6.24452L140.743 6.12458L141.564 6.35031L142.167 6.2786L142.7 6.37574L143.096 6.3665L143.662 6.37637L144.384 6.30673L144.622 6.12831L145.066 6.16965L145.289 6.06009L145.567 6.26127L146.45 6.26699L146.92 6.10469L147.759 6.15441L148.187 6.09858L148.757 6.18755L149.509 6.12337L149.897 6.14113L150.462 6.15098L151.04 6.0896L151.403 6.18011L152.138 6.08529L151.955 5.92041L152.48 5.96466L152.71 5.90646L153.454 5.93256L153.321 6.11562L153.871 6.07139L154.404 6.1668L155.171 6.08481L155.558 6.10189L156.134 6.04069L156.632 6.13032L156.725 5.92117C157.159 6.11777 156.689 5.97265 157.257 6.06286L157.635 6.06947L158.088 6.1215L158.56 6.07226L159.312 6.09119L159.197 5.94214L159.835 5.92463C160.574 6.0413 160.672 5.9177 161.078 6.19261L161.336 6.14222C161.802 6.3215 161.572 6.29295 162.127 6.34245L162.024 6.09222L162.729 6.08643C163.273 6.09096 163.297 6.12949 163.734 6.23315L164.168 6.18065L164.581 6.34006L165.005 6.33971L166.078 6.11925L167.406 6.2604L167.46 6.43616L168.209 6.46624C168.968 6.31844 168.715 6.4673 168.716 6.19993L167.864 6.30692L167.827 6.12199L168.576 6.12085L168.955 6.1294L169.587 6.24808L170.289 6.28917L170.619 6.45188C170.843 6.31304 170.975 6.49103 170.682 6.25168L171.281 6.04254C171.672 6.10039 172.285 6.11216 172.68 6.06221L172.897 6.32584L173.667 6.35177L173.856 6.35227L174.233 6.35884L174.791 6.43489L175.522 6.44484L175.145 6.19801L175.924 6.26068L176.512 6.18956L176.805 6.25818C177.507 6.1165 177.374 6.21989 177.449 5.93314L176.623 5.89332L176.696 5.65908L175.927 5.63316L175.597 5.46981L174.882 5.55358L174.404 5.26665L173.698 5.47264L173.05 5.32183L172.604 5.3741L172.536 5.17098L171.975 5.14289L171.639 5.3L171.213 5.07985L169.719 4.95885L169.422 4.90608L168.917 5.01461L169.514 5.12837C169.065 5.3242 168.973 5.12302 168.248 5.00337L168.199 4.81951L167.481 4.80139L167.644 4.91618L166.898 4.9262C166.527 4.9221 166.286 4.87247 165.954 4.83783L165.215 4.81697L165.763 4.75635L165.767 4.5592L166.709 4.50287L167.089 4.51338L167.655 4.52325L168.398 4.61545L168.786 4.61188L169.547 4.62516L170.291 4.71737L170.879 4.64581L171.412 4.74252L172.184 4.74007L172.929 4.83229L173.316 4.82849C174.178 4.84353 173.742 4.82883 173.884 4.70083L171.809 4.53072L171.434 4.52051L170.303 4.50078L168.995 4.32919L168.606 4.33339L166.532 4.29719L165.701 4.16837L165.402 4.22129L165.047 4.12662L164.198 4.1512L164.044 4.06067L163.522 3.96953L163.868 3.96891L163.895 3.78142L163.148 3.75483L162.582 3.74688L162.205 3.74031L161.645 3.79685L160.895 3.70625L160.319 3.7074L160.315 3.70734ZM155.134 8.63901L155.635 8.70482C156.381 8.60071 155.877 8.63519 156.297 8.7282C155.746 8.83377 155.542 8.85561 155.134 8.63901ZM150.646 6.35916C151.183 6.24322 151.232 6.27638 151.762 6.43804L151.211 6.4379C150.426 6.44294 150.797 6.3986 150.646 6.35916ZM54.323 0.837937C54.8599 0.708228 54.0779 0.78436 54.8599 0.709519C54.7063 0.98155 54.3157 0.949761 53.7263 0.815469C54.124 0.748564 53.6395 0.681121 54.3247 0.837968L54.323 0.837937ZM125.819 1.79798C126.123 1.73332 125.804 1.71161 126.574 1.74249L127.126 1.76158L126.589 1.88505L125.819 1.79798ZM160.227 6.95108L160.222 7.21151L159.721 7.19393C159.736 6.94123 159.595 6.98571 160.227 6.95108ZM155.806 3.50874C156.357 3.46863 156.682 3.36621 157.093 3.56458C156.518 3.5778 156.127 3.66504 155.806 3.50874ZM124.155 8.77516L123.62 8.78607L122.886 8.70414L123.772 8.69807L124.007 8.4279C124.118 8.50927 124.181 8.68519 124.158 8.77499L124.155 8.77516ZM130.178 2.48181C130.19 2.27016 130.508 2.27873 131.093 2.304L131.643 2.32308L130.178 2.48288L130.178 2.48181ZM46.6372 8.74365L45.9158 8.71728C46.2432 8.54409 46.7462 8.52079 47.1881 8.73324L46.6372 8.74365ZM11.7589 7.10169L10.4088 7.0973L9.49751 6.92445L8.36607 6.90471C5.5276 6.60394 0.46474 5.5384 0.0792425 4.3394L0.858582 4.15923L1.46192 4.5674L1.86621 4.63581C2.1837 4.87817 2.05625 4.87896 2.2287 5.05786C2.42739 5.26499 2.51229 5.14893 2.85297 5.38975L5.24819 6.01735L5.45019 5.98298L6.16568 6.29687L6.75138 6.3874L6.99103 6.34034L7.25645 6.45111L9.01526 6.67556L9.6971 6.72126L10.4599 6.72445L12.523 6.97681L12.9053 6.97724L14.4066 7.14746L14.7971 7.1377L15.3301 7.23462L15.9149 7.17571L16.4723 7.25175L17.7935 7.2748L18.1803 7.27122L18.9237 7.36342L20.4338 7.38976L20.8305 7.38054L21.3635 7.47746L21.9412 7.41607L22.3181 7.41963L23.0242 7.4524C23.5235 7.64346 23.4859 7.65422 24.1992 7.73125L24.5942 7.72286L25.1271 7.82344L25.8696 7.81336L25.7446 7.62581L26.2792 7.63019C26.649 7.63147 26.8888 7.68044 27.2206 7.71529L27.7863 7.72516L28.1776 7.71842L28.6434 7.78468L29.2967 7.68284L29.8624 7.69271L30.2501 7.68914L30.9926 7.7811L31.7572 7.78411L32.5015 7.87611L33.6329 7.89585L34.0167 7.91116L35.3515 7.76953L36.0662 8.02464L36.0748 8.35074L36.8303 8.36392C36.6123 8.5457 37.0954 8.49234 36.0545 8.49506L35.6998 8.39328L35.1304 8.4925L34.5664 8.38061L34.2016 8.4511L33.0761 8.29626L32.4863 8.28791L31.7373 8.4137L31.131 8.37901L30.5468 8.50876L27.4011 8.1994L26.8354 8.18953L26.4476 8.1931L25.7051 8.10091L25.1385 8.09103L24.7517 8.09483L24.0083 8.00263L23.6206 8.0062L22.8658 7.90153L22.4379 7.95994L21.9346 7.89712L21.5478 7.90071L20.8035 7.8085L18.9174 7.77559C17.8651 7.66594 16.7824 7.56029 15.9179 7.30796L15.336 7.35938L14.0214 7.21028L13.6301 7.21723L12.5307 7.04369L11.9073 7.02355L11.7544 7.10205C12.5267 7.1209 12.5304 7.06026 12.6415 7.33605L11.7691 7.22825L11.7526 7.10202L11.7589 7.10169ZM160.241 8.2138L159.466 8.3161L158.729 8.18914L159.176 8.10867L159.463 8.16556L160.239 8.21375L160.241 8.2138ZM147.86 6.44251L147.846 6.24699L148.38 6.24706L148.929 6.27816C148.45 6.50189 148.68 6.31387 147.856 6.44202L147.86 6.44251ZM51.9253 8.48973L52.491 8.4996C53.1688 8.57084 53.0635 8.52939 53.2101 8.70698C52.7367 8.66987 52.2396 8.65732 51.9253 8.48973ZM129.866 8.69782L130.743 8.56566L130.95 8.6754C130.512 8.80511 130.291 8.90288 129.866 8.69782ZM141.736 6.82309C141.95 6.77493 141.626 6.74171 142.336 6.76143L143.074 6.79584C142.677 6.98117 142.246 6.93941 141.737 6.82353L141.736 6.82309ZM142.744 2.42119L143.146 2.29773L143.72 2.32712C143.196 2.48117 143.54 2.44303 142.977 2.51029L142.599 2.5037L142.048 2.48482L142.744 2.42119ZM108.3 8.99197L108.785 8.87125L109.074 8.94303C109.756 8.89163 109.483 8.83392 109.828 9.01259L109.073 8.99942C108.544 9.10278 108.796 9.11559 108.3 8.99197ZM137.949 2.88672L137.505 2.79092L138.257 2.77004L138.823 2.78185C139.872 2.80014 139.411 2.77209 139.526 2.92587L139.008 2.83546L137.952 2.88677L137.949 2.88672ZM127.374 9.0873C127.476 9.02772 127.278 8.9403 127.962 8.97851L128.743 9.0733C128.607 9.10387 128.79 9.17852 128.139 9.14306L127.374 9.08666L127.374 9.0873ZM97.9244 0.916225C98.2975 0.783441 98.5497 0.832622 98.8822 0.984174L98.3144 1.14263L97.9289 0.916303L97.9244 0.916225ZM107.007 9.31301C106.164 9.37279 106.714 9.40133 106.199 9.27954L106.995 9.16854L107.748 9.20623C107.334 9.39965 107.822 9.29945 107.007 9.31301ZM142.059 2.82646C142.071 2.61009 142.4 2.63865 142.975 2.64868C143.674 2.66088 143.286 2.65238 143.571 2.72777L142.055 2.82703L142.059 2.82646ZM176.339 6.40656L176.873 6.40427C177.643 6.40672 177.277 6.3999 177.681 6.50856L176.994 6.60078C176.311 6.50146 176.746 6.68256 176.339 6.40656ZM69.723 1.25583C69.528 1.03951 69.5614 1.12212 69.8413 0.964886L70.1005 1.12528L70.7121 1.2098C70.1847 1.3556 70.3844 1.34768 69.723 1.25583ZM132.757 6.12775C133.223 6.16431 133.885 6.17134 134.215 6.33857L133.665 6.33843C132.545 6.3456 132.966 6.26984 132.757 6.12775ZM161.734 8.07966L160.78 7.9388C161.545 7.92566 162.175 7.8906 162.723 8.01576C162.436 8.08094 162.823 8.08641 162.124 8.0742L161.734 8.08052L161.734 8.07966ZM100.89 1.28897L100.963 1.02608L101.326 1.23435L101.146 1.32379L101.486 1.41303L100.589 1.42236L100.118 1.17453L100.89 1.28811L100.89 1.28897ZM140.555 1.91193L140.549 1.72323L141.477 1.77731C142.201 1.74215 141.969 1.6535 142.406 1.8635L141.667 1.87212L141.479 1.8654C140.827 1.85404 141.106 1.83091 140.555 1.91236L140.555 1.91193ZM102.774 1.37265C102.208 1.51347 101.526 1.38468 101.522 1.11076C102.017 1.12627 102.372 1.25993 102.774 1.37265ZM55.6901 8.96899C56.2215 8.85597 57.2465 9.04867 57.7457 9.19366C57.0825 9.20362 56.1586 9.08675 55.6901 8.96899ZM149.438 2.80796L149.65 2.56622L150.486 2.65961C150.362 2.87403 149.972 2.96324 149.438 2.80796ZM71.2773 2.42894L71.6541 2.43552L71.6281 2.70396L71.2764 2.42807L71.2773 2.42894ZM71.6541 2.43552L72.0373 2.38558L72.8399 2.35459L72.8411 2.28271L72.0399 2.236C71.8005 2.21805 71.5463 2.23256 71.2994 2.23449L71.2826 2.42796L70.9577 2.3577L70.7013 2.54506L69.951 2.54553L69.7622 2.53943L69.3844 2.53284L68.6474 2.43387L69.3929 2.24838L70.069 2.4225L69.9452 2.21259L70.442 2.33945L71.0687 2.17815C70.3219 1.97265 71.1345 2.23484 70.2149 2.07714L69.9812 2.13765L69.0575 2.06685L68.9912 2.23792L68.1133 2.19053L68.0336 2.36654L67.7439 2.21595L66.9409 2.27341L66.4338 2.22151L66.1494 2.38511L66.9334 2.39879C67.6069 2.30893 67.1897 2.31715 67.7223 2.43559L66.9191 2.49952L66.2936 2.6012L65.2271 2.43038L65.7687 2.39268L65.8022 2.26409L66.0407 2.07449L66.9372 2.07506L67.705 1.94615L68.0687 2.04034L68.6192 1.95198L69.0154 1.97547L69.576 1.91895L70.3425 2.0137C70.8361 1.91854 70.4473 1.93157 71.0915 1.94281C71.7356 1.95404 71.3591 1.92595 71.8446 2.03647L72.6028 1.94678L73.2289 2.17408L73.3957 2.06503L74.0766 2.05754C74.4057 1.84046 73.8104 1.99434 74.4878 1.93339L75.2424 1.94655L75.7457 2.00894L77.0129 1.85882L77.5098 1.93509C78.0069 1.83763 77.619 1.85088 78.2623 1.8621C78.6427 1.86874 78.8736 1.91325 79.2205 1.95353L79.7566 1.87289L80.151 1.89506L80.9056 1.90822L81.6508 1.842L82.0382 1.85931L82.5574 1.87676L82.9996 2.07458C82.0471 2.06614 81.2438 2.13803 80.5339 2.32048L79.9353 2.30724L79.3138 2.17174L78.8307 2.22962L77.6852 2.19628L77.6696 2.06964L76.9284 2.10751L76.6433 2.04872L75.8633 2.11347L75.4664 2.23852L74.933 2.16333L74.5471 2.37038L73.0922 2.5041L72.6156 2.43873L71.6586 2.4356L71.6541 2.43552ZM151.939 8.37896L152.716 8.52794C152.18 8.62816 152.596 8.6505 151.857 8.49357L151.629 8.71458L151.516 8.52336L150.922 8.4398C150.678 8.47085 150.646 8.58138 150.643 8.36604L151.427 8.42277L151.939 8.37961L151.939 8.37896ZM177.643 7.12773L177.373 7.28944C176.891 7.25949 176.249 7.2526 175.915 7.07541C176.49 6.98919 176.935 7.0863 177.641 7.12705L177.643 7.12773ZM71.0741 1.04754L71.3658 0.92733C71.9722 1.05481 71.8405 1.09837 72.3974 1.25535L71.5501 1.34412L71.0741 1.04754ZM73.0534 9.64483L72.3048 9.89873L71.4951 9.72571C71.8381 9.58099 71.6393 9.58097 72.2842 9.59847L73.0534 9.64483ZM112.111 8.7831L111.856 8.63807L111.436 8.67379L110.793 8.59347L111.355 8.47562L112.046 8.56173L112.3 8.48779L113.214 8.61934C112.686 8.76472 113.066 8.7201 112.489 8.78948L112.111 8.7831L112.073 8.90451L110.973 9.05044L110.675 8.99659L110.026 9.01971L110.591 8.82246L111.192 8.91432L111.717 8.77107L112.111 8.7831ZM39.3655 1.87322C39.8579 1.7408 40.6068 1.66969 41.1634 1.74356C41.3915 2.0005 41.3533 1.89348 41.0939 2.05279C40.9047 1.913 40.752 2.08622 41.0813 1.85192C40.3823 1.86922 39.907 1.99355 39.3655 1.87322ZM144.682 2.0595C143.935 2.04648 144.094 2.10113 143.773 1.91793L144.496 1.91676L145.44 1.93516L146.241 1.98208L146.24 2.05396L145.441 2.08394L144.68 2.0584L144.682 2.0595ZM95.4012 1.03733L96.4133 0.950356L96.7226 1.10344L96.6091 1.27369L97.1987 1.34233C96.6558 1.45707 97.0977 1.41333 96.2354 1.34037L96.0955 1.18723L95.4012 1.03819L95.4012 1.03733ZM65.8453 0.862225L66.3234 0.526103C66.9688 0.72445 66.9063 0.67901 66.554 0.900855L66.7516 1.01561L66.4031 1.12062L65.8453 0.862225ZM75.9865 9.98686C76.5306 9.85728 76.4073 10.0803 76.5885 9.75732L75.5182 9.80861L75.3976 9.92492C74.6396 9.80017 75.1703 9.82601 74.6964 9.91914L75.4933 10.214L75.9821 9.98571L75.9865 9.98686ZM119.927 1.96838L120.205 1.85461L120.732 1.91871L121.098 1.84092L121.646 1.94779L122.042 1.93855C122.683 1.94974 122.309 1.96474 122.797 1.87121L123.363 2.00207L122.419 2.01681L121.84 2.0754L121.307 1.97847L120.214 2.09719L119.927 1.96838ZM130.631 6.82912L129.334 6.94512L129.353 6.76074L129.949 6.69816C130.589 6.81697 130.109 6.7595 130.501 6.66472L129.491 6.57433L130.636 6.50648L131.226 6.51785L130.963 6.71628L131.376 6.84147L130.631 6.82955L130.631 6.82912ZM105.45 1.7061L105.461 1.52352L106.2 1.52241L107.709 1.5509L108.51 1.59782L108.509 1.6697L107.712 1.701L107.329 1.68184L106.949 1.67521L106.114 1.77516L105.95 1.66466L105.447 1.70563L105.45 1.7061ZM60.3283 0.850143C60.405 0.541462 60.2109 0.684258 60.7441 0.512933L61.3357 0.879561L60.5739 1.02408L60.1698 0.996789L59.792 0.990198L58.814 0.86355L59.1749 0.609345L59.7658 0.860781L60.3283 0.849067L60.3283 0.850143ZM77.7477 0.913597L78.0907 0.81452L78.5214 0.954869L78.9933 0.92306C78.8392 1.12834 78.903 0.994682 78.3265 1.19432L78.4349 1.36844C77.8414 1.36282 77.343 1.27619 76.9426 1.089L77.1689 0.884553L77.8389 1.10034L77.7476 0.914458L77.7477 0.913597ZM169.088 9.15785L169.845 9.16847L170.974 9.25965L171.739 9.26265L172.482 9.35485L173.99 9.38117L173.988 9.51869L173.421 9.50881L173.035 9.51262L172.291 9.4202L171.726 9.41034L171.338 9.41411L170.594 9.32191L169.841 9.30876C168.662 9.2882 169.332 9.27664 169.088 9.15785ZM76.2565 9.5274L76.7894 9.62777L78.1222 9.54747C77.8546 9.30813 78.0684 9.41391 77.1715 9.48653L76.6386 9.38703L76.2436 9.39564C75.4499 9.38179 75.0892 9.57356 73.9772 9.56256L73.9748 9.70009L75.4993 9.66339L76.2503 9.5273L76.2565 9.5274ZM173.321 4.48454L172.944 4.47797C172.271 4.52091 172.552 4.58264 172.205 4.41406L172.735 4.38024C171.651 4.02697 170.965 4.12331 170.123 3.93638L169.045 4.13673C169.227 3.89513 168.681 4.1067 169.524 3.96123C168.698 3.72271 168.841 4.00314 168.255 3.72703L168.994 3.7184C169.364 3.7227 169.604 3.77211 169.936 3.80717L170.884 3.74168L171.217 3.61057L171.84 3.63092L172.342 3.87283C172.82 3.74791 172.735 3.71822 173.332 3.72864C173.929 3.73905 173.849 3.75683 174.338 3.87191L175.421 3.77112L176.868 4.09928L176.533 4.16835L177.288 4.21359L177.853 4.22002L178.033 4.55298L177.282 4.55602C176.911 4.55063 176.673 4.50406 176.339 4.46875L175.966 4.46223L175.284 4.41675L174.778 4.24517L173.163 4.37759L173.324 4.48503L173.693 4.41998L174.267 4.50148L175.399 4.52124L175.775 4.53145L176.922 4.61132L177.471 4.76386C176.918 4.87885 177.292 4.82854 176.528 4.74739L175.942 4.75332L175.409 4.65618L174.825 4.71531L174.266 4.64098L173.541 4.61261L173.326 4.48399L173.321 4.48454ZM149.494 7.44005C150.179 7.452 149.685 7.4563 150.126 7.39423C150.533 7.47045 150.292 7.45397 150.815 7.4631C151.499 7.47504 151.005 7.47932 151.444 7.42003L151.965 7.49005L152.249 7.44162L152.917 7.60829L152.133 7.62366L151.378 7.6105L150.983 7.58831L150.447 7.66615L149.858 7.65093L148.924 7.499L148.359 7.48913C148.714 7.17757 148.493 7.42259 149.49 7.43998L149.494 7.44005ZM62.6494 1.02369L63.0637 0.569552L64.3818 0.977705L65.0594 1.00804L64.6575 0.803394L64.9413 0.674436L65.494 0.869229L65.3677 1.11375L64.3159 1.07645L63.9418 1.0626L63.3658 0.981076L62.6521 1.02374L62.6494 1.02369ZM140.53 2.14078C140.871 2.04878 140.36 2.05169 141.286 2.06786L145.813 2.14684L145.81 2.28459L141.284 2.2056L140.829 2.15462L140.53 2.14229L140.53 2.14078ZM148.427 1.90526L148.807 1.77432L149.659 1.9795L150.343 2.02222L151.285 2.13811L150.53 2.16457L150.341 2.15781L149.602 2.15267C150.095 2.32017 149.78 2.14997 149.912 2.35185L149.412 2.26604C149.059 2.30295 148.824 2.33868 148.452 2.33218C147.774 2.32035 148.16 2.35551 147.73 2.22701L147.941 2.12477C148.311 2.19344 148.161 2.20116 148.642 2.19772L149.194 2.1983L148.483 2.0606L148.428 1.90743L148.427 1.90526ZM67.2873 0.752398L68.0581 0.550557L68.4326 0.741165L69.191 0.68981L68.9875 1.06861L68.2655 1.28336L67.5687 1.17325L67.2909 0.75246L67.2873 0.752398ZM122.097 8.52956L121.567 8.60642L121.168 8.59386L119.667 8.7285L119.83 8.84351L119.29 8.8203L119.455 8.72308C118.551 8.74563 118.974 8.86344 118.718 8.62626L119.847 8.60677L119.047 8.45912L119.809 8.42031L120.104 8.31781L120.608 8.38043L122.873 8.41995L122.871 8.55748L122.097 8.52912L122.097 8.52956ZM126.841 6.60194L125.357 6.74678L124.913 6.69596L124.462 6.66528C124.214 6.86354 124.512 6.73074 124.033 6.78956L123.656 6.78298L123.275 6.7873L122.475 6.67926L122.976 6.57239L123.264 6.62694L124.163 6.56836L124.484 6.3817L124.905 6.4364L125.366 6.40247L125.924 6.47852L126.867 6.49496L126.839 6.60213L126.841 6.60194ZM115.497 8.07833L114.357 8.29828L115.105 8.36966L115.013 8.53749L115.16 8.69572L115.898 8.70666L116.424 8.83274L115.702 8.91723L115.128 8.83574C114.585 8.87385 114.227 8.95609 113.823 8.76045L114.647 8.71389L114.74 8.4972L114.228 8.46352L114.162 8.35257L113.605 8.26254L113.86 7.93007C114.751 7.92732 114.394 7.99643 115.148 8.0096L115.534 8.02623L116.313 7.98427L116.026 8.14785L115.505 8.07761L115.497 8.07833ZM75.6199 0.996388L74.8307 1.12837L74.2597 0.758871L73.3194 0.864536L72.8982 0.848359L72.7683 1.09432L73.5857 1.38674L73.9495 1.22086L74.4875 1.3902L75.2744 1.388L75.4881 1.14286L76.5491 1.26901C76.5439 1.00519 76.6277 1.15305 76.1436 0.912735L76.7641 0.743364L76.2128 0.72255L75.4285 0.728672L75.6208 0.994682L75.6199 0.996388ZM49.7765 1.84755C50.9088 1.86731 52.6827 1.99449 53.5985 1.85697L53.8316 1.98117C54.5213 1.88556 54.3583 1.87991 54.8352 2.02796L53.5676 2.14643L53.7519 2.31046C52.9126 2.29991 52.4996 2.22187 52.054 2.01883L51.4553 2.01118L51.2268 2.13206C50.3776 2.17882 50.8417 2.2388 50.3708 2.10916L50.7188 2.03063L49.6376 2.09788L49.0161 1.96173L48.4583 2.11498L47.8964 1.93638L46.9668 2.09412L45.6404 1.95838L46.3555 1.83802L46.7552 1.86373L48.6421 1.89665L49.3882 1.83023L49.7747 1.84752L49.7765 1.84755ZM48.3099 0.447977L48.8585 0.367126L49.2327 0.474411L49.5414 0.406167L49.9766 0.487391L50.3662 0.481486L51.6865 0.504522C52.4998 0.518714 52.441 0.469677 52.6263 0.727384L51.8717 0.714218L50.933 0.833904L50.1834 0.742673L49.7956 0.746888L46.7773 0.694224C45.9648 0.680047 46.0237 0.729299 45.8383 0.471377L46.5929 0.484543L47.3391 0.418335L47.7255 0.435412L48.3099 0.447977ZM169.342 6.54024L169.696 6.63535L170.075 6.54766L170.451 6.64852L170.818 6.57074L171.392 6.65223L171.959 6.66212C172.683 6.73934 174.074 6.85426 174.183 7.10848L173.648 7.1041L173.261 7.1081L172.501 7.00011L171.958 7.08947L171.197 6.99287L170.629 6.9851L169.643 6.91151L169.394 6.77604L168.973 6.82941C168.802 7.11083 169.127 7.0097 168.373 6.99117L168.805 6.80193L168.32 6.69982L167.438 6.73546L167.475 6.50919L168.254 6.58737C168.8 6.51379 168.335 6.50568 168.868 6.5858L169.341 6.54218L169.342 6.54024ZM97.3873 9.14516L97.352 9.27717L97.0093 9.2066L97.3873 9.1443L97.3873 9.14516ZM85.8757 9.21945L85.8649 9.07609L86.1238 8.89546L86.8252 8.89026L87.3858 8.83545L87.7585 9.02646L86.3071 9.11244L85.8757 9.21945ZM80.7581 8.84382L81.3395 8.87549L80.8206 8.93856L80.567 9.12295L80.2274 9.01993L80.7581 8.84382ZM45.3341 8.14221L44.5444 8.14522L44.923 8.00285L45.3341 8.14221ZM97.3873 9.14516L97.3708 9.01893L96.8666 9.05728L96.8408 8.79848C97.3715 9.02992 97.0055 8.85884 97.7672 9.02692L98.0745 8.8833C98.0978 9.12828 98.2206 9.08779 97.3873 9.14581L97.3873 9.14516ZM91.1662 8.83037C91.7217 8.71411 91.7835 8.74512 91.8695 8.9744L91.1662 8.83037ZM89.461 9.21333L89.2458 9.0847L88.177 9.04797C88.3362 8.86194 87.9489 8.99641 88.6982 8.85017L89.2969 8.86363L89.6273 9.0285L90.014 8.92975L89.6592 8.83357L90.182 8.75141L90.4324 8.95772L89.8042 9.20511L89.4654 9.2134L89.461 9.21333ZM67.5881 8.3503L67.9659 8.35689L68.7093 8.44887C69.6321 8.37434 69.2368 8.29898 69.4727 8.52054L68.3261 8.54962L67.628 8.46854L67.5881 8.35138L67.5881 8.3503ZM42.9082 8.04541C43.1687 7.93069 43.2731 7.92261 43.6638 8.00155L42.9082 8.04541ZM101.731 8.94602L101.373 9.02266L100.979 9.00159L99.8471 8.98183L99.8483 8.91317L100.977 8.88701L101.735 8.9461L101.731 8.94602ZM94.5749 9.03344C93.8628 8.9898 93.9765 9.06154 93.8408 8.81998L94.3756 8.8151L94.9268 8.83656L94.5767 9.03347L94.5749 9.03344ZM80.4173 8.60558C81.2986 8.61299 80.8263 8.56212 80.9296 8.71484L80.4173 8.60558ZM74.3744 8.75504C74.1351 8.57971 74.3305 8.66708 74.2245 8.40796L74.9363 8.47205L74.3736 8.7546L74.3744 8.75504ZM55.8454 8.34563C55.7004 8.27788 55.5394 8.21202 55.3631 8.14841L55.8648 8.14855L55.8454 8.34563ZM67.5917 8.35015L66.8395 8.19945L66.4482 8.20597L65.9621 8.12688C65.2564 8.22371 64.0199 8.35414 63.2368 8.33767C62.7995 8.52876 63.2258 8.40594 62.6837 8.47162L61.7385 8.45513L61.7373 8.52379L62.4919 8.53695L62.8881 8.56044L63.4241 8.48174L64.0056 8.56121L64.5662 8.50447L65.6976 8.52421L66.0836 8.52147L66.8467 8.60368L67.0535 8.34657L67.5881 8.35095L67.5917 8.35015ZM76.6404 8.36142L77.026 8.37719L78.3463 8.40022L79.0856 8.42087L78.5278 8.6204L77.593 8.5197L77.2125 8.51801L76.6778 8.51363L76.6094 8.70835L76.4203 8.51624L75.7084 8.45667L76.644 8.36148L76.6404 8.36142ZM72.2924 8.41472C71.8818 8.29992 72.1074 8.38997 71.9667 8.23207L72.7026 8.29486L73.0119 8.24148L72.8035 8.53925L72.8417 8.70203C72.2025 8.66139 72.2715 8.6387 71.7414 8.48068L71.3835 8.56227L70.6256 8.53312L71.5629 8.38994L70.435 8.32376L71.1721 8.2673C72.331 8.24446 71.0709 8.39471 72.2888 8.41595L72.2924 8.41472ZM82.5097 8.66189C82.7037 8.52297 82.6412 8.53114 82.53 8.41638L83.0648 8.41172L83.6161 8.43296L82.9075 8.49229C82.7239 8.79932 82.9818 8.6247 82.5115 8.66192L82.5097 8.66189ZM64.9529 8.09893L64.4118 8.16118C64.7562 7.9829 64.5032 8.02736 64.9529 8.09893ZM95.4105 8.64198L95.4134 8.4797C95.7244 8.63454 95.7982 8.49029 95.4106 8.64069L95.4105 8.64198ZM83.8297 8.39794C84.8489 8.36039 84.5654 8.31712 84.7191 8.49441L83.8297 8.39794ZM74.3561 8.21994C75.4255 8.21966 74.9612 8.16957 75.093 8.33226L74.3561 8.21994ZM57.7848 7.97236L56.2875 7.92901L57.0306 7.88729L57.7445 7.82978L57.7893 7.97243L57.7848 7.97236ZM41.9124 7.60865L41.9867 7.74343L42.5512 7.97546L41.8068 8.09337L41.4072 8.01298L41.3364 7.82875L40.6826 7.96374L41.0319 7.76358L41.6012 7.77115L41.9124 7.60865ZM39.109 7.64801L39.2427 7.49232L39.5352 7.58117L39.109 7.64801ZM64.9529 8.09893L64.9747 7.97294L65.6937 7.98032L64.9529 8.09893ZM57.7857 7.97388L58.1164 7.96867L58.5815 7.71843L58.8853 7.87444L59.4619 7.71744L59.8332 7.99303L58.9757 7.95331L57.9791 8.07456L57.7839 7.97385L57.7857 7.97388ZM91.8739 8.21105L92.4678 8.24101L92.1069 8.49564L91.3637 8.49387L90.8124 8.47198L91.6889 8.34324L91.8739 8.21105ZM89.671 8.10523C90.0731 8.29933 90.1713 8.28619 90.2302 8.53997L89.726 8.47714L89.2793 8.54039L88.1525 8.30544L87.4166 8.2926L87.9579 8.47707L87.3989 8.49358C87.0246 8.49222 86.7761 8.43772 86.4399 8.3987L85.9038 8.47912L85.0802 8.33558L85.6768 8.15481L86.0301 8.34074L86.9068 8.24839L88.1559 8.16427L88.531 8.16607L89.322 8.19021L89.6639 8.10489L89.671 8.10523ZM102.683 8.41278L102.503 8.52848L103.42 8.57268C103.084 8.63764 103.508 8.64268 102.868 8.62248L102.334 8.60798L102.314 8.41797L102.683 8.41278ZM98.3439 8.40575L98.5147 8.32262L98.7305 8.46826L98.3439 8.40575ZM102.683 8.41278C103.169 8.26497 103.077 8.2752 103.768 8.31202L104.051 8.49737L104.563 8.5416L103.797 8.57667L103.105 8.39538L102.683 8.41278ZM101.52 8.32791C101.376 8.49956 101.19 8.57597 100.625 8.56569L100.768 8.391C99.9182 8.42827 100.282 8.52977 100.08 8.31031L100.802 8.30913L101.524 8.32797L101.52 8.32791ZM94.1748 8.316L93.4471 8.24345L92.6858 8.20864L93.2436 8.10728L93.9767 8.12761L94.1748 8.31514L94.1748 8.316ZM52.149 7.51815L52.1689 7.39858L53.2577 7.51209L52.6966 7.54342L52.149 7.51815ZM47.8029 7.35405L48.5493 7.32767L49.2886 7.35047L48.7444 7.48458L47.8029 7.35405ZM98.3439 8.40489L98.3086 8.53689L96.8508 8.42965C97.4854 8.26849 97.5743 8.1273 98.3324 8.14763L98.1063 8.33314L98.3439 8.40489ZM42.5218 7.05415L43.6485 7.03549L44.0289 7.04492L44.7732 7.13713L45.1591 7.13353L46.2915 7.15329L47.4478 7.27939L45.9158 7.28431L45.5309 7.27759L44.3956 7.17339L44.1442 7.12939C43.602 7.20152 44.0661 7.20962 43.5206 7.11657L43.0643 7.17018L42.52 7.05455L42.5218 7.05415ZM37.4247 6.8791C38.349 6.87003 37.9895 6.93912 38.7441 6.95228C39.1165 6.95878 39.3515 6.9237 39.6888 6.89987L40.0656 6.90645L40.8049 6.9271L40.3856 7.11053L40.1335 7.0536L39.6965 7.12003L39.1091 7.02603L38.3739 7.07887L37.7499 7.08736L37.4291 6.88025L37.4247 6.8791ZM112.487 7.91257C111.913 8.058 111.938 8.08878 111.596 7.89122L112.487 7.91257ZM111.337 7.87097L111.128 8.20124L110.347 8.23434L108.973 8.28571L108.744 8.20248C109.281 8.06632 108.897 8.10742 109.675 8.12099L110.045 8.12745C110.823 8.14102 110.438 8.18232 110.958 8.05102L110.63 7.94756L111.336 7.87181L111.337 7.87097ZM119.8 8.00981L119.364 7.98713L118.949 7.89376L119.485 7.81141L120.215 7.82781C120.048 8.02253 120.482 7.87078 119.802 8.01006L119.8 8.00981ZM93.8415 7.08734L93.622 7.20837L93.1007 7.20531L93.8415 7.08734ZM138.565 7.81041L139.305 7.80954L139.855 7.83055C139.533 7.97864 139.076 8.00017 138.555 7.99301L138.565 7.81041ZM128.76 7.56763L129.115 7.64638L129.493 7.5589L129.87 7.65956L130.178 7.59152L130.614 7.67232L131.003 7.66683L131.192 7.67013C132.221 7.68808 131.751 7.64716 131.943 7.82081L130.986 7.74943L130.595 7.92258L130.06 7.92897C129.448 7.92906 129.792 7.92839 129.43 7.85748L129.117 7.92134L128.571 7.8145L127.986 7.82066L127.41 7.73914L126.874 7.81741L126.479 7.79436L124.97 7.76803L124.971 7.69916L126.669 7.72879L127.414 7.66256L127.877 7.72511L128.032 7.63675L128.764 7.56771L128.76 7.56763ZM114.407 7.41601L113.649 7.43272L113.849 7.30015L114.407 7.41601ZM93.8433 7.08737L94.015 7.00425L94.578 7.22118L94.0759 7.29122L93.8433 7.0878L93.8433 7.08737ZM85.7103 6.99713C85.0028 6.99211 85.1249 7.04505 85.0231 6.80236L85.7103 6.99713ZM134.189 7.7741C133.566 7.7714 133.781 7.82317 133.485 7.65416L134.189 7.7741ZM130.614 7.48329C131.148 7.53416 130.872 7.38231 130.933 7.59887L130.614 7.48329ZM111.175 7.24769L110.679 7.11867C111.03 7.00682 110.701 7.07901 111.165 7.05827L111.175 7.24769ZM109.68 7.08812L110.427 7.11127L109.822 7.2822L109.63 7.49522L109.455 7.30401L108.934 7.25982L109.678 7.08809L109.68 7.08812ZM102.488 7.08966C103.036 6.88843 102.065 7.02049 102.884 6.98892L102.657 7.1587L101.97 7.15574L102.488 7.09009L102.488 7.08966ZM100.263 6.96255L101.008 6.93616L101.197 6.94139L101.936 6.96205L101.182 7.01541L100.895 7.04786L100.263 6.96255ZM94.5935 6.89507C94.9201 6.66072 94.7886 6.79513 95.1452 6.78478L94.5935 6.89507ZM111.764 6.9193L112.123 7.00868L113.068 7.0174C112.79 7.09868 112.59 7.1686 112.137 7.13228L111.5 7.09166L111.385 6.85283L111.764 6.91995L111.764 6.9193ZM102.23 6.83347L102.233 6.6727C102.545 6.82755 102.618 6.68307 102.23 6.83347ZM111.764 6.9193C112.261 6.67652 112.025 6.79123 112.362 6.86106L111.764 6.9193ZM107.849 6.91408C108.079 6.63304 107.788 6.89148 108.699 6.73514C108.482 6.99897 108.824 6.76424 107.849 6.91408ZM114.578 6.88186C113.736 6.84003 113.994 6.927 113.874 6.76193L114.578 6.88186ZM114.027 6.1633L114.781 6.15254L114.399 6.29659L114.027 6.16437L114.027 6.1633ZM136.655 6.31203C136.48 6.50273 136.894 6.40576 136.275 6.44296L136.655 6.31203ZM76.1361 5.12929L76.8754 5.14994C76.0415 5.29362 75.0504 5.1984 74.0755 5.14414L74.8317 5.11578L75.1251 5.05201L75.5577 5.13125L75.9473 5.12578L76.1361 5.12929ZM77.8484 5.21019C77.9902 5.0499 78.5213 5.10244 78.9496 5.12714L77.8484 5.21019ZM137.488 6.19373C137.733 6.10393 136.91 6.11905 137.804 6.08557L137.488 6.19373ZM135.153 6.01865C134.635 6.27055 134.779 6.11976 134.595 6.04486L135.153 6.01865ZM142.896 6.13222L142.995 6.07388L143.416 6.24677L142.896 6.13222ZM141.217 6.05878L141.563 6.05793L141.681 5.93556L142.721 6.12593L141.894 6.17458L141.247 6.18828L141.217 6.05878ZM72.3185 4.76256L72.7509 4.90509L71.9479 4.95998L72.3158 4.76251L72.3185 4.76256ZM123.279 5.59703C123.104 5.78882 123.517 5.69053 122.898 5.72797L123.279 5.59703ZM90.7163 5.23901C90.9603 5.14918 90.1375 5.1654 91.031 5.13061L90.7163 5.23901ZM99.7271 5.22787C100.608 5.23506 100.136 5.1842 100.239 5.33713L99.7271 5.22787ZM101.613 5.1598C102.185 5.13296 101.807 5.22283 102.041 5.03552L102.224 5.15669L102.919 5.19249C102.514 5.37768 102.691 5.31124 101.988 5.30414L101.41 5.36531L100.61 5.23014C101.136 5.1151 100.895 5.14706 101.609 5.15973L101.613 5.1598ZM80.462 4.71218C80.2875 4.90397 80.7009 4.80591 80.0818 4.84333L80.462 4.71218ZM76.9163 4.84881C77.0399 4.70952 77.4529 4.74041 77.862 4.73958L78.1023 4.8047C78.5285 4.74432 78.2298 4.75181 78.7884 4.76156C79.4886 4.77378 79.1002 4.76549 79.3859 4.84088C79.0123 4.90454 79.4925 4.96244 78.8511 4.84317L77.9585 4.9247L77.6636 4.87283L76.9074 4.84866L76.9163 4.84881ZM117.259 5.39296C117.793 5.44426 117.517 5.29219 117.578 5.50897L117.259 5.39296ZM104.238 5.17159C103.655 5.32481 103.907 5.32921 103.329 5.15572L103.814 5.07269L104.238 5.17202L104.238 5.17159ZM86.7045 4.96922C87.0312 4.73487 86.8997 4.86928 87.2563 4.85893L86.7045 4.96922ZM86.0964 4.63244C86.4806 4.8314 86.5053 4.74184 86.091 4.94065L85.4177 4.86625L86.0964 4.63244ZM150.826 5.93257C150.338 5.91974 150.584 5.97615 150.516 5.81306L150.826 5.93257ZM139.512 5.71363C140.046 5.76471 139.769 5.61263 139.831 5.82942L139.512 5.71363ZM151.572 5.82351C151.054 6.07563 151.197 5.92355 151.013 5.84973L151.572 5.82351ZM140.288 5.76334L140.081 5.572L140.642 5.64939C141.39 5.58429 141.16 5.50578 141.821 5.65596C141.317 5.75244 141.557 5.72046 140.844 5.70781L140.288 5.7627L140.288 5.76334ZM142.025 5.71679C142.345 5.56413 141.692 5.60204 142.528 5.61793L142.025 5.71679ZM104.442 4.93424L104.768 4.87534L104.692 5.02708L104.442 4.93424ZM89.7879 4.61698L90.1267 4.81041L91.316 4.73299L91.7916 4.79554L92.1821 4.78879L92.5598 4.79538L93.1375 4.7342L93.5013 4.82451L93.8592 4.74205L94.6179 4.77122L94.3873 5.01995L92.9912 4.89828L92.1678 4.99565L91.737 4.86283L91.5211 4.97812L91.2418 4.89661L90.3491 4.98652L90.0325 5.15323L89.7793 5.00866L89.0892 4.97509C88.6705 5.01515 88.9683 5.00764 88.4097 4.9979C87.828 4.98775 87.8568 4.97167 87.4525 4.84944L87.489 4.64899C88.0664 4.70212 87.8193 4.61579 88.0835 4.8486L88.7571 4.85541L88.8263 4.6663C89.2596 4.86224 88.7952 4.71635 89.3984 4.82117L89.7923 4.61663L89.7879 4.61698ZM82.7658 4.59586L83.523 4.56322C84.0493 4.68564 83.9013 4.63957 84.2577 4.79994L84.5815 4.72765C84.4757 4.86661 84.9828 4.81603 84.0835 4.87182L84.2649 5.05023L83.6862 4.96607L83.1383 5.05942L82.7439 5.03704L81.9893 5.02387L81.2669 5.00718L81.0389 4.74485L81.7567 4.82196L81.647 4.61961C82.3012 4.6687 81.9083 4.60867 82.3563 4.82833L83.5585 4.67535L82.7677 4.59439L82.7658 4.59586ZM112.729 5.10208C112.908 5.05439 112.615 4.91882 113.344 5.08934L112.729 5.10208ZM111.69 5.17911L111.658 4.93398L112.526 4.93943C112.395 5.18194 112.293 5.19717 111.69 5.17911ZM104.442 4.93424L104.116 4.99313L104.192 4.84097L104.442 4.93381L104.442 4.93424ZM97.0871 4.73702C98.098 4.66402 96.858 4.63635 97.9998 4.62721L98.1231 4.91075L98.4622 4.6299L98.7518 4.78565C99.2085 4.70944 99.4199 4.6972 99.7107 4.83425L98.9559 4.83809C98.5134 5.01595 98.565 4.97379 97.9 5.08361L97.2867 4.94223L96.5262 5.01357L96.1388 4.99583C95.623 4.98683 95.6618 4.95693 95.3868 4.8333L95.0787 4.9769L94.8405 4.78393L95.9536 4.78355L96.6997 4.71971L97.0871 4.73702ZM170.071 5.95941C169.534 6.09515 169.635 6.09886 169.365 5.94129L170.071 5.95941ZM108.418 5.05464C108.728 4.88782 108.808 4.88726 109.332 4.89963L109.106 5.06943L108.418 5.05464ZM106.883 4.75336L107.443 4.86517L108.209 4.8865L107.461 4.92124L106.32 4.9403L106.883 4.75336ZM120.825 4.8879L120.847 5.07106L120.321 5.06189C120.291 4.88332 120.438 4.9087 120.825 4.8879ZM116.638 4.81355L117.051 4.96996L117.014 5.13658L116.322 5.14475L115.788 5.12703L115.56 4.86621L115.942 4.93748L116.638 4.81419L116.638 4.81355ZM112.93 4.87587C113.098 4.84371 112.96 4.68716 113.478 4.93668L112.93 4.87587ZM110.644 4.84396L110.04 5.09177L109.551 4.90625L110.644 4.84396ZM118.417 4.83921L119.135 4.94883L118.263 5.0628L117.843 5.18463L117.283 5.05345L117.7 4.91303L118.414 4.83938L118.417 4.83921ZM114.764 4.78817L115.386 4.88515L114.632 4.90944L114.068 4.86257L114.764 4.7886L114.764 4.78817ZM176.298 5.89496C175.444 5.90396 175.903 5.91607 175.798 5.77214L176.298 5.89496ZM139.389 5.3315C139.633 5.24168 138.809 5.2568 139.704 5.22289L139.389 5.3315ZM121.06 5.06875C121.496 4.81047 121.007 4.89559 121.786 4.91026C121.204 5.07234 121.621 5.02838 121.06 5.06875ZM77.4578 4.10151C76.9705 4.08849 77.2173 4.14533 77.148 3.98222L77.4578 4.10151ZM137.838 5.03512C138.006 5.00273 137.869 4.8462 138.386 5.09592L137.838 5.03512ZM113.026 4.68292L113.028 4.52171C113.34 4.67657 113.413 4.5323 113.026 4.68292ZM79.3038 3.81983L79.975 4.01863L79.2214 4.09956L78.8576 4.21313L78.7847 4.00023L79.3038 3.81983ZM77.8842 3.92273L78.5864 4.02433L78.3518 4.19505L77.9752 4.07179L77.6422 4.10473L77.8842 3.92273ZM76.4728 3.75988L76.8924 4.02297L76.2132 4.07872L75.9954 4L76.4728 3.75988ZM75.4541 3.81488L75.7636 4.00328C75.2216 3.96239 75.4348 4.10518 75.4541 3.81488ZM74.6526 3.78324L75.0043 4.0587C74.3429 4.01207 74.3317 3.99099 74.6526 3.78324ZM171.127 5.62778L171.13 5.46658C171.441 5.62142 171.515 5.47717 171.127 5.62778ZM169.342 5.51612L169.867 5.46672C169.737 5.61516 169.982 5.67196 169.342 5.51612ZM107.095 4.43003C107.551 4.33529 107.064 4.293 107.693 4.44046C107.189 4.53932 107.573 4.55334 107.095 4.43003ZM172.361 5.51862L172.944 5.50318L173.169 5.63628L173.862 5.69014L172.752 5.77153L172.361 5.51927L172.361 5.51862ZM169.342 5.51612L168.79 5.58916L168.017 5.4592L168.85 5.46728L169.155 5.43169L169.342 5.51612ZM140.668 4.94713C141.125 4.85241 140.636 4.81008 141.266 4.95757C140.762 5.05642 141.146 5.07022 140.668 4.94713ZM89.652 3.92051C89.6724 4.23864 89.8662 4.05644 89.359 4.12014L89.652 3.92051ZM83.5179 3.88388C83.3371 4.03143 83.8312 4.00991 82.9513 3.97648L83.5179 3.88388ZM80.5404 4.09825C80.6199 3.88198 80.4802 4.02055 80.9218 3.8416L81.8341 4.0121L81.3085 3.99647L80.9975 4.10235L80.5404 4.09825ZM167.075 5.47656C166.505 5.47501 166.429 5.42223 166.167 5.33477L166.89 5.3336C167.436 5.34055 167.441 5.36324 167.814 5.47159L167.075 5.47656ZM77.3783 3.85448L77.3811 3.69328C77.6921 3.84941 77.7659 3.70387 77.3783 3.85448ZM145.182 4.93914C144.329 4.94815 144.789 4.96026 144.684 4.81633L145.182 4.93914ZM119.06 4.10315L119.927 4.17317L120.305 4.17978L120.682 4.18636L121.389 4.20623L121.901 4.53486L121.054 4.53709C120.277 4.52354 120.662 4.48246 120.141 4.61331L120.674 4.70097L119.92 4.72699C119.125 4.72152 119.557 4.65608 118.791 4.5665L117.658 4.54674L116.895 4.61653L116.146 4.49904L115.474 4.66234L115.557 4.45711L114.948 4.45725L114.735 4.70132L114.549 4.46471L113.696 4.41L113.318 4.40018L112.941 4.39359L112.057 4.50176L111.748 4.38269L110.977 4.47429L110.501 4.40614L109.742 4.48568L108.977 4.46201C108.453 4.49419 108.185 4.5442 107.83 4.37891L108.397 4.23919L108.869 4.298C109.27 4.13126 108.78 4.2646 109.359 4.19331L110.868 4.21965L111.614 4.15344L112.001 4.17073L113.133 4.19049L113.708 4.27178L114.244 4.19373L114.64 4.21679L115.583 4.23323C116.135 4.166 115.683 4.2959 116.151 4.09352C116.664 4.32357 116.108 4.15736 116.715 4.25299L117.47 4.26616C117.948 4.20689 117.647 4.33964 117.898 4.14187L118.349 4.17126L118.857 4.3093L119.056 4.10115L119.06 4.10315ZM162.204 5.24237L161.99 4.98632L162.942 5.23415L162.202 5.24277L162.204 5.24237ZM161.511 5.11596L161.514 4.95476C161.824 5.11087 161.898 4.96535 161.511 5.11596ZM88.5617 3.89417L87.8568 3.79468L88.2252 3.67193C88.7418 3.84004 88.4922 3.69273 88.5617 3.89417ZM75.0326 3.45768L75.1945 3.57288L74.9703 3.65358L74.478 3.57179L74.0867 3.57831L72.5722 3.55189L71.8329 3.53124L72.0492 3.34125L72.346 3.49024L73.5967 3.31615L74.2343 3.39186L74.3995 3.5278L75.0245 3.45624L75.0326 3.45768ZM167.08 4.98342L167.273 4.9982L167.651 5.00479L168.41 5.12051L167.462 5.06866L166.315 5.0127L167.08 4.98299L167.08 4.98342ZM126.119 4.0965L126.236 4.28175L126.38 4.08383L127.172 4.20831L127.474 4.15416L127.828 4.32847C128.454 4.21517 128.469 4.20876 128.575 4.44915L127.773 4.48058L127.567 4.38053L127.088 4.45227L126.733 4.35307L125.834 4.39788L125.41 4.25097L125.135 4.39108L124.902 4.33641L124.092 4.4015L124.253 4.50378L123.491 4.51717L122.958 4.41681L123.393 4.18565L124.28 4.101L124.83 4.20943L125.409 4.14654L126.117 4.0969L126.119 4.0965ZM133.889 4.27856C134.39 4.17106 134.341 4.17623 134.869 4.29566C134.342 4.39627 134.391 4.40337 133.889 4.27856ZM80.8686 3.31515L81.6346 3.28653C82.2863 3.27336 82.1024 3.34184 82.2363 3.37733L81.4536 3.44484C80.7672 3.4587 80.9682 3.37867 80.8686 3.31515ZM80.405 3.42569L80.4078 3.26448C80.7188 3.42061 80.7917 3.27527 80.405 3.42569ZM135.05 4.42434C135.063 4.17268 135.538 4.23199 136.137 4.26656L135.05 4.42434ZM128.981 4.39918C129.252 4.14342 129.719 4.21658 130.494 4.15044L130.872 4.15704C131.262 4.16385 131.914 4.24799 132.255 4.30689L132.743 4.24501L133.512 4.27199C133.123 4.46156 133.326 4.4061 132.566 4.39284L131.999 4.38295L131.439 4.43971C130.733 4.3656 130.741 4.4019 130.353 4.22269L130.261 4.41635C129.639 4.29786 129.576 4.30923 128.977 4.39911L128.981 4.39918ZM89.3551 3.52501C89.6076 3.45579 88.9812 3.39749 90.1109 3.46349L89.3551 3.52501ZM83.3433 3.37038L82.5537 3.3734L82.9331 3.23082L83.3433 3.37038ZM75.0326 3.45768L75.1527 3.36677L75.9741 3.27345L76.5379 3.34443L77.1218 3.28508L77.4155 3.35479L77.7374 3.24049L77.958 3.3662L78.8031 3.25177L79.2639 3.30071L79.7397 3.25089C79.4527 3.41014 79.3757 3.37823 78.9343 3.4448L78.6237 3.37006L77.2849 3.4875L76.9945 3.43077L76.7536 3.49546L76.1507 3.47159L75.8309 3.62123C75.3226 3.534 75.5991 3.67682 75.3798 3.47515L75.0352 3.45751L75.0326 3.45768ZM51.6139 2.83076C50.8804 2.83368 50.8804 2.88406 50.7386 2.63271L51.5954 2.66596L51.6139 2.83076ZM40.1165 2.50098C39.5988 2.75288 39.7422 2.6021 39.5582 2.52741L40.1165 2.50098ZM94.2927 3.23634L95.4622 3.373L94.6585 3.46792L94.2765 3.44876L93.5285 3.41289L94.29 3.23629L94.2927 3.23634ZM88.0152 3.19011L88.5105 3.25515C89.0462 3.19346 88.5794 3.18531 89.1223 3.27832L89.3568 3.21782L90.1165 3.24787C89.4673 3.37519 89.5716 3.2685 89.0115 3.50093L88.4129 3.48747L87.8798 3.39098L86.7465 3.38089L87.372 3.28416L87.6996 3.35274L88.0108 3.19024L88.0152 3.19011ZM59.1288 2.63873L59.5726 2.74572L58.8065 2.8273L58.0698 2.71132L58.8399 2.70323L59.1333 2.63946L59.1288 2.63873ZM57.2923 2.78646C56.64 2.78153 56.3755 2.77046 56.2264 2.58486L57.2923 2.78646ZM121.068 3.7793C121.432 3.7766 121.486 3.75085 121.823 3.72358L123.521 3.7532L124.261 3.77387L123.724 3.89927L122.95 3.79685L122.604 3.96304L122.288 3.80834L121.558 3.90324L120.689 3.83986L119.949 3.82027L121.067 3.77864L121.068 3.7793ZM92.5877 3.24556C93.4689 3.25297 92.9957 3.20209 93.1 3.35482L92.5877 3.24556ZM91.4518 3.33145C91.7586 3.10881 91.6009 3.2081 92.1924 3.22445L91.4518 3.33145ZM127.673 3.75697L128.223 3.77583C127.879 3.93474 128.098 3.90282 127.481 3.89205C126.739 3.8791 127.111 3.87075 126.916 3.8133C127.22 3.74843 126.902 3.72586 127.673 3.75783L127.673 3.75697ZM151.616 3.93038L152.383 3.9007L152.765 3.91878L153.566 3.9657L153.565 4.03758L152.763 4.06879L152.38 4.04962L151.612 3.92858L151.616 3.93038ZM94.1455 3.09146C94.4663 2.93861 93.8133 2.97673 94.6489 2.9926L94.1455 3.09146ZM62.5976 2.41507C63.0761 2.31255 62.8863 2.31548 63.3842 2.4288C62.8826 2.52489 63.0723 2.53423 62.5976 2.41507ZM127.522 3.34142L126.922 3.39984C127.319 3.11267 127.281 3.29307 127.522 3.34142ZM125.981 3.31452C126.46 3.21221 126.27 3.21493 126.767 3.32823C126.266 3.42434 126.456 3.43368 125.981 3.31452ZM115.358 3.11561L116.368 3.21138C116.783 3.14865 116.527 3.13558 117.115 3.15983L117.666 3.17892C117.46 3.22009 115.549 3.34671 115.226 3.33334L114.674 3.31444L115.173 3.2478L115.358 3.11561ZM163.518 3.96947L163.178 4.11316L162.207 4.00451L162.75 3.88245L163.346 3.89457L163.518 3.96947ZM160.311 3.87369L160.874 3.85208C161.379 3.85616 161.357 3.88634 161.8 3.95715L161.595 4.19406L162.185 4.25107L161.279 4.27357L161.193 4.09122L160.305 3.87358L160.311 3.87369ZM133.51 3.40606C134.044 3.45714 133.77 3.30532 133.83 3.52209L133.51 3.40606ZM77.6959 2.19712L77.7124 2.32335C78.5753 2.3623 78.6686 2.27545 78.7778 2.55379C78.2564 2.45384 78.5348 2.48668 77.888 2.4754L77.5103 2.4688L76.7869 2.45209C76.8201 2.18377 76.7796 2.261 77.703 2.19724L77.6959 2.19712ZM65.8075 2.26461L65.4619 2.25191L65.4514 1.98907L65.8075 2.26461ZM122.397 3.13208L123.138 3.13617L122.619 3.20096L122.438 3.34162L121.474 3.1896L122.397 3.13208ZM76.3551 2.431C75.7313 2.42829 75.9479 2.48008 75.6514 2.31107L76.3551 2.431ZM149.938 3.56224L149.001 3.55729L149.252 3.45683L149.938 3.56224ZM121.357 3.03922L121.36 2.87823C121.67 3.03306 121.744 2.88881 121.357 3.03922ZM116.226 2.80632L116.553 2.88715C117.247 2.76276 116.704 2.78904 117.152 2.88554L115.846 2.99409C115.924 2.78855 115.604 2.95564 116.226 2.80696L116.226 2.80632ZM132.378 2.95121L132.953 2.96383L132.633 3.08053L132.378 2.95121ZM118.442 2.56401L119.274 2.69394L119.744 2.71592L119.329 2.91493L119.059 2.76769L118.222 2.82069L118.442 2.56401ZM122.383 2.55399L123.177 2.63996L123.713 2.57094L124.108 2.59399L124.745 2.6346L124.853 2.8746C124.335 2.78418 124.732 2.81133 124.104 2.80039C123.454 2.78904 122.829 2.93746 122.262 3.03735L122.198 2.77788L121.081 2.81331L120.706 2.80956L119.951 2.79638C120.354 2.60018 120.131 2.66734 120.897 2.67531L121.457 2.61878L121.967 2.68322L122.383 2.55399ZM126.372 2.49593L126.219 2.57398L125.46 2.54352C125.551 2.40969 125.359 2.41451 125.758 2.47939L125.955 2.33214L126.372 2.497L126.372 2.49593ZM123.166 2.37109L122.436 2.51658L122.032 2.48801L121.655 2.48143L121.151 2.41903L120.123 2.58969L119.591 2.4297L119.231 2.59566L118.979 2.44056L118.273 2.39789L119.021 2.36313L119.598 2.30496L120.351 2.38763L121.488 2.27572L121.919 2.40401L122.178 2.27268L123.171 2.37225L123.166 2.37109ZM110.905 2.22669L111.058 2.14821L111.645 2.17998C111.206 2.38071 111.458 2.32591 110.905 2.22669ZM110.905 2.22669L110.751 2.30474L109.766 2.17991L110.544 2.14441L110.905 2.22669ZM108.296 2.18118C107.729 2.28948 107.692 2.30197 107.354 2.10747C108.067 2.09967 107.809 2.06998 108.296 2.18118ZM102.989 1.77662C103.818 1.78075 103.251 1.68668 103.788 1.94708L104.244 1.91887L104.671 1.99283L105.06 1.98714L106.004 2.00361L106.805 2.05009L105.255 2.27774L104.175 2.1252L103.861 2.29195L103.026 2.30323L102.729 2.41775L102.152 2.2968L101.847 2.35607L101.472 2.25566L101.024 2.38541L100.199 2.29501L99.6172 2.02006L98.6187 2.1443L98.0971 2.05576L97.2486 2.16496L96.996 2.34161L96.3897 2.30714L97.1183 2.07269L96.3801 2.03829L96.0023 2.03492C95.0789 2.0989 95.1194 2.02189 95.0873 2.28226L96.156 2.31727L95.9932 2.50647L95.4215 2.43427L94.6724 2.5155L94.3448 2.33755C93.5883 2.4391 94.2486 2.38819 93.5404 2.47422L92.9747 2.46435L92.2345 2.44347L92.4021 2.33616L91.4006 2.32924L91.3581 2.51688L90.9422 2.34772L90.3404 2.41602L89.7514 2.41091L89.4098 2.32615L88.4809 2.39434L89.2533 2.20393C88.7501 2.08148 89.0107 2.111 88.2959 2.11898L88.2266 2.30723C87.6937 2.20622 87.9694 2.23815 87.3173 2.22677L87.1293 2.22349L86.4218 2.21826C85.7044 2.47485 86.2811 2.46769 85.4437 2.45157L85.6303 2.27958L84.8634 2.25845L84.1098 2.2397L83.3736 2.14074L83.6015 1.90101L84.6815 1.90457L85.4455 1.83587C85.9309 2.05963 85.4004 1.9169 85.9848 1.97984L85.7953 1.8071L86.5869 1.79594L87.1199 1.89523L87.5148 1.88662L87.8916 1.89319L88.4702 1.83181L89.0209 1.93356L89.9788 1.78988L90.5313 1.89124L90.8894 1.80082L91.4831 1.88998L91.9666 1.86203L93.322 1.76382L93.178 1.89694L93.9241 1.933L94.4899 1.93964L94.8676 1.94623L95.6317 1.87603L96.1699 1.98424L97.3014 1.89634L96.7548 1.76258C96.3196 1.83184 96.5522 1.8796 96.2085 1.71192L96.9465 1.70327L97.5131 1.71639L98.2524 1.73704L97.4898 1.87745L98.4502 1.89055L98.9574 1.9332L99.3853 1.87414L100.141 1.97904L100.897 1.90267L101.284 1.91996L102.604 1.943L103.362 1.85719L102.989 1.77662Z" fill="#59D6FF"/>
</svg>
