<svg width="54" height="25" viewBox="0 0 54 25" fill="none" xmlns="http://www.w3.org/2000/svg">
<path d="M37.3164 4.74259H32.5707C32.2297 4.74259 31.9027 4.60635 31.6616 4.36385C31.4205 4.12135 31.285 3.79244 31.285 3.44949C31.285 3.10654 31.4205 2.77763 31.6616 2.53513C31.9027 2.29262 32.2297 2.15638 32.5707 2.15638H35.4462L34.8962 1.39582C34.777 1.23087 34.6206 1.09663 34.4399 1.00408C34.2592 0.911526 34.0592 0.863279 33.8564 0.863281H26.9993C26.7354 0.8633 26.4778 0.945006 26.2617 1.0973C26.0455 1.2496 25.8812 1.46511 25.791 1.71457L24.385 5.60466H37.9398L37.3164 4.74259ZM41.278 12.7743C41.6352 12.5951 42.0287 12.5016 42.4279 12.5012H46.4986L43.5308 7.52557C43.4165 7.33402 43.2549 7.17552 43.0616 7.0655C42.8683 6.95548 42.65 6.89769 42.4279 6.89776H8.14214C7.88517 6.89776 7.6341 6.97519 7.42132 7.12007C7.20853 7.26495 7.04379 7.47063 6.94835 7.71059L4.35742 14.2254H38.3922L41.278 12.7743ZM12.4279 11.6391H10.9279C10.5869 11.6391 10.2598 11.5029 10.0187 11.2604C9.7776 11.0179 9.64214 10.689 9.64214 10.346C9.64214 10.0031 9.7776 9.67418 10.0187 9.43168C10.2598 9.18917 10.5869 9.05294 10.9279 9.05294H12.4279C12.7688 9.05294 13.0959 9.18917 13.337 9.43168C13.5781 9.67418 13.7136 10.0031 13.7136 10.346C13.7136 10.689 13.5781 11.0179 13.337 11.2604C13.0959 11.5029 12.7688 11.6391 12.4279 11.6391ZM19.1779 11.6391H17.4636C17.1226 11.6391 16.7955 11.5029 16.5544 11.2604C16.3133 11.0179 16.1779 10.689 16.1779 10.346C16.1779 10.0031 16.3133 9.67418 16.5544 9.43168C16.7955 9.18917 17.1226 9.05294 17.4636 9.05294H19.1779C19.5188 9.05294 19.8459 9.18917 20.087 9.43168C20.3281 9.67418 20.4636 10.0031 20.4636 10.346C20.4636 10.689 20.3281 11.0179 20.087 11.2604C19.8459 11.5029 19.5188 11.6391 19.1779 11.6391ZM26.3564 11.6391H24.3207C23.9797 11.6391 23.6527 11.5029 23.4116 11.2604C23.1705 11.0179 23.035 10.689 23.035 10.346C23.035 10.0031 23.1705 9.67418 23.4116 9.43168C23.6527 9.18917 23.9797 9.05294 24.3207 9.05294H26.3564C26.6974 9.05294 27.0244 9.18917 27.2656 9.43168C27.5067 9.67418 27.6421 10.0031 27.6421 10.346C27.6421 10.689 27.5067 11.0179 27.2656 11.2604C27.0244 11.5029 26.6974 11.6391 26.3564 11.6391ZM32.9993 11.6391H31.285C30.944 11.6391 30.617 11.5029 30.3759 11.2604C30.1347 11.0179 29.9993 10.689 29.9993 10.346C29.9993 10.0031 30.1347 9.67418 30.3759 9.43168C30.617 9.18917 30.944 9.05294 31.285 9.05294H32.9993C33.3403 9.05294 33.6673 9.18917 33.9084 9.43168C34.1495 9.67418 34.285 10.0031 34.285 10.346C34.285 10.689 34.1495 11.0179 33.9084 11.2604C33.6673 11.5029 33.3403 11.6391 32.9993 11.6391ZM36.8564 10.346C36.8564 10.0031 36.9919 9.67418 37.233 9.43168C37.4741 9.18917 37.8012 9.05294 38.1421 9.05294H40.1779C40.5189 9.05294 40.8459 9.18917 41.087 9.43168C41.3281 9.67418 41.4636 10.0031 41.4636 10.346C41.4636 10.689 41.3281 11.0179 41.087 11.2604C40.8459 11.5029 40.5189 11.6391 40.1779 11.6391H38.1421C37.8012 11.6391 37.4741 11.5029 37.233 11.2604C36.9919 11.0179 36.8564 10.689 36.8564 10.346Z" fill="#59D6FF"/>
<path d="M53.9397 14.6949C53.8571 14.4332 53.6938 14.2048 53.4735 14.0427C53.2532 13.8805 52.9873 13.7931 52.7143 13.7931H42.4286C42.229 13.7931 42.0322 13.8399 41.8537 13.9296L38.6965 15.5172H1.28572C1.06656 15.5172 0.851034 15.5736 0.659612 15.6809C0.46819 15.7883 0.307228 15.943 0.192009 16.1305C0.0767913 16.318 0.0111427 16.5321 0.00129799 16.7523C-0.00854678 16.9725 0.0377391 17.1915 0.13576 17.3887L3.56433 24.2852C3.67112 24.5 3.83526 24.6807 4.03837 24.8069C4.24148 24.9331 4.47553 25 4.7143 25H43.7143C43.9531 25 44.1871 24.9331 44.3902 24.8069C44.5933 24.6807 44.7575 24.5 44.8643 24.2852C46.15 21.6983 51.5023 17.5303 53.4559 16.1426C53.679 15.9842 53.846 15.7585 53.933 15.4982C54.02 15.238 54.0223 14.9566 53.9397 14.6949ZM12 3.87931H18V5.60345H12V3.87931ZM18 1.2931C18 0.950151 17.8646 0.621246 17.6234 0.378742C17.3823 0.136238 17.0553 0 16.7143 0H13.2857C12.9447 0 12.6177 0.136238 12.3766 0.378742C12.1355 0.621246 12 0.950151 12 1.2931V2.15517H18V1.2931Z" fill="#59D6FF"/>
</svg>
