<svg width="21" height="17" viewBox="0 0 21 17" fill="none" xmlns="http://www.w3.org/2000/svg">
<path d="M13.7326 7.55443L9.09325 5.0009C8.82649 4.85408 8.51119 4.85956 8.24971 5.01541C7.98808 5.17142 7.83203 5.44701 7.83203 5.75291V10.8161C7.83203 11.1206 7.98712 11.3957 8.24699 11.5519C8.38269 11.6334 8.53314 11.6743 8.6839 11.6743C8.82201 11.6743 8.96043 11.64 9.0878 11.571L13.7273 9.0615C14.0028 8.91242 14.1747 8.62442 14.1759 8.30966C14.1771 7.9949 14.0072 7.70561 13.7326 7.55443ZM9.06265 10.1792V6.395L12.53 8.30354L9.06265 10.1792Z" fill="#003B5D"/>
<path d="M20.8454 4.2763L20.8444 4.26663C20.8266 4.0966 20.6496 2.58421 19.9187 1.81496C19.0739 0.91017 18.1161 0.800254 17.6555 0.747552C17.6174 0.743201 17.5824 0.739172 17.5512 0.734981L17.5145 0.731113C14.7383 0.528043 10.5456 0.500322 10.5036 0.500161L10.4999 0.5L10.4962 0.500161C10.4543 0.500322 6.26156 0.528043 3.46035 0.731113L3.42334 0.734981C3.39354 0.73901 3.36069 0.742717 3.32496 0.746908C2.86963 0.79977 1.92211 0.909847 1.07489 1.84735C0.378751 2.60838 0.177519 4.08838 0.156852 4.2547L0.154448 4.2763C0.1482 4.34705 0 6.03141 0 7.72237V9.30309C0 10.9941 0.1482 12.6784 0.154448 12.7493L0.15557 12.76C0.173354 12.9273 0.350232 14.4119 1.07777 15.1815C1.87212 16.056 2.87652 16.1717 3.41677 16.2339C3.50216 16.2437 3.5757 16.2521 3.62585 16.261L3.6744 16.2678C5.27736 16.4212 10.3032 16.4968 10.5163 16.4998L10.5227 16.5L10.5291 16.4998C10.5711 16.4997 14.7636 16.472 17.5398 16.2689L17.5765 16.265C17.6116 16.2603 17.651 16.2562 17.6943 16.2516C18.147 16.2033 19.0894 16.1029 19.9249 15.1781C20.6211 14.4169 20.8225 12.9369 20.843 12.7708L20.8454 12.7492C20.8516 12.6783 21 10.9941 21 9.30309V7.72237C20.9998 6.03141 20.8516 4.34721 20.8454 4.2763ZM19.7692 9.30309C19.7692 10.8682 19.6334 12.48 19.6205 12.628C19.5683 13.0356 19.356 13.9719 19.0168 14.3428C18.4939 14.9215 17.9567 14.9789 17.5645 15.0207C17.5171 15.0256 17.4732 15.0305 17.4334 15.0355C14.7482 15.2308 10.7138 15.2608 10.528 15.2619C10.3195 15.2589 5.36724 15.1826 3.81314 15.0374C3.73351 15.0244 3.64748 15.0144 3.5568 15.0041C3.09682 14.951 2.46717 14.8785 1.98299 14.3428L1.97162 14.3305C1.63837 13.9813 1.43217 13.1057 1.37978 12.6328C1.37001 12.521 1.23062 10.8901 1.23062 9.30309V7.72237C1.23062 6.15905 1.36616 4.549 1.3793 4.39798C1.44162 3.91787 1.65792 3.03822 1.98299 2.68268C2.52196 2.08637 3.09025 2.02029 3.46611 1.97661C3.502 1.97242 3.53549 1.96855 3.56641 1.96452C6.29072 1.76822 10.3541 1.73905 10.4999 1.73792C10.6457 1.73889 14.7077 1.76822 17.4078 1.96452C17.441 1.96871 17.4772 1.9729 17.5161 1.97742C17.9027 2.02174 18.487 2.08878 19.0233 2.66415L19.0282 2.66947C19.3615 3.01872 19.5677 3.90965 19.6201 4.39202C19.6294 4.49758 19.7692 6.13198 19.7692 7.72237V9.30309Z" fill="#003B5D"/>
</svg>
